<svg version="1.1" xmlns="http://www.w3.org/2000/svg" viewBox="0 0 658.2777134582401 416.2709297137987" width="1316.5554269164802" height="832.5418594275974">
  <!-- svg-source:excalidraw -->

  <defs>
    <style>
      @font-face {
        font-family: "Virgil";
        src: url("https://excalidraw.com/Virgil.woff2");
      }
      @font-face {
        font-family: "Cascadia";
        src: url("https://excalidraw.com/Cascadia.woff2");
      }
    </style>
  </defs>
  <rect x="0" y="0" width="658.2777134582401" height="416.2709297137987" fill="#ffffff"></rect><g stroke-linecap="round"><g transform="translate(10.48785047754643 77.2709297137987) rotate(0 311.19717534556986 -10.448893997818232)"><path d="M-0.49 -0.23 C103.5 -3.85, 519 -17.34, 622.88 -20.67 M1.46 -1.4 C105.36 -4.35, 518.46 -16.54, 621.87 -19.48" stroke="#000000" stroke-width="1" fill="none"></path></g></g><g stroke-linecap="round"><g transform="translate(25.48785047754643 94.2709297137987) rotate(0 310.5721815912007 -10.416180100291967)"><path d="M-0.12 0.29 C103.69 -3.17, 518.98 -17.65, 622.79 -21.12 M-1.65 -0.6 C102 -3.92, 517.81 -17.02, 621.73 -20.18" stroke="#000000" stroke-width="1" fill="none"></path></g></g><g stroke-linecap="round"><g transform="translate(43.48785047754643 10.270929713798694) rotate(0 45.062156168795184 85.3967990147043)"><path d="M-0.18 0.51 C5.18 28.75, 27.67 163.48, 32.05 169.69 C36.44 175.9, 23.75 39.82, 26.12 37.74 C28.49 35.66, 44.3 160.1, 46.26 157.19 C48.22 154.28, 35.05 19.51, 37.88 20.28 C40.71 21.06, 58.44 160.09, 63.24 161.85 C68.04 163.62, 61.93 30.69, 66.7 30.89 C71.47 31.08, 87.78 141.22, 91.85 163.03 M-1.73 -0.27 C3.49 28.13, 26.61 164.53, 31.13 171.06 C35.66 177.6, 22.92 41.03, 25.42 38.92 C27.92 36.81, 43.78 161.5, 46.12 158.4 C48.47 155.3, 36.38 19.91, 39.49 20.3 C42.6 20.69, 60.16 159.12, 64.78 160.74 C69.39 162.35, 62.77 29.59, 67.19 30.01 C71.61 30.42, 87.55 141.53, 91.27 163.23" stroke="#000000" stroke-width="1" fill="none"></path></g></g><g stroke-linecap="round" transform="translate(123.48785047754643 164.2709297137987) rotate(0 18 16.5)"><path d="M20.6 -0.76 C24.29 -0.53, 29.39 2.49, 31.93 5.09 C34.48 7.69, 35.85 11.34, 35.86 14.83 C35.86 18.32, 34.35 23.15, 31.97 26.03 C29.59 28.9, 25.42 31.16, 21.58 32.07 C17.73 32.98, 12.35 33.13, 8.89 31.47 C5.44 29.81, 2.26 25.38, 0.87 22.11 C-0.52 18.85, -0.86 15.27, 0.55 11.87 C1.97 8.46, 5.09 3.42, 9.35 1.69 C13.6 -0.04, 22.72 0.88, 26.09 1.48 C29.46 2.07, 29.74 4.98, 29.57 5.26 M16.21 0.56 C19.72 -0.01, 23.94 1.99, 26.88 3.55 C29.82 5.1, 32.44 6.91, 33.85 9.88 C35.26 12.85, 36.39 17.92, 35.34 21.37 C34.29 24.82, 30.93 28.74, 27.54 30.6 C24.14 32.46, 18.88 33.23, 14.96 32.53 C11.04 31.83, 6.72 29.12, 4.04 26.41 C1.35 23.69, -1.02 19.54, -1.14 16.24 C-1.26 12.94, 0.53 9.25, 3.32 6.6 C6.11 3.95, 13.55 1.35, 15.6 0.34 C17.66 -0.68, 15.67 0.48, 15.64 0.49" stroke="#000000" stroke-width="1" fill="none"></path></g><g stroke-linecap="round" transform="translate(126.48785047754643 195.2709297137987) rotate(0 10 9.5)"><path d="M10.13 -0.3 C12.43 -0.3, 16.43 1.35, 17.92 2.71 C19.4 4.06, 18.84 5.92, 19.05 7.83 C19.26 9.73, 20.33 12.25, 19.18 14.13 C18.04 16.02, 14.41 18.31, 12.2 19.14 C9.98 19.98, 7.79 20.17, 5.91 19.14 C4.03 18.11, 1.71 15.01, 0.92 12.95 C0.14 10.88, 0.51 8.57, 1.2 6.75 C1.88 4.93, 3.16 3.28, 5.02 2.05 C6.88 0.82, 10.99 -0.48, 12.34 -0.62 C13.69 -0.76, 13.08 1, 13.11 1.19 M12.33 -0.54 C14.28 0.06, 16.65 3.98, 17.77 5.83 C18.89 7.68, 19.02 8.86, 19.03 10.55 C19.05 12.25, 19.29 14.37, 17.84 16 C16.38 17.62, 12.84 20.35, 10.31 20.31 C7.78 20.27, 4.52 17.43, 2.66 15.75 C0.79 14.06, -0.77 11.86, -0.86 10.22 C-0.96 8.58, 0.84 7.43, 2.08 5.92 C3.31 4.41, 4.55 1.97, 6.54 1.16 C8.53 0.35, 12.65 1.14, 14 1.06 C15.35 0.98, 14.82 0.59, 14.64 0.7" stroke="#000000" stroke-width="1" fill="none"></path></g><g stroke-linecap="round" transform="translate(144.48785047754643 192.2709297137987) rotate(0 10 9.5)"><path d="M5.59 -0.08 C7.52 -0.96, 10.78 0.25, 12.83 1.14 C14.87 2.04, 16.67 3.82, 17.84 5.28 C19.02 6.74, 20.03 8.06, 19.87 9.9 C19.71 11.74, 18.53 14.64, 16.88 16.3 C15.22 17.96, 11.98 19.88, 9.93 19.86 C7.88 19.85, 6.31 17.74, 4.57 16.21 C2.82 14.69, 0.05 12.59, -0.53 10.72 C-1.11 8.86, -0.22 6.71, 1.09 5 C2.41 3.3, 6.22 1.18, 7.36 0.48 C8.49 -0.22, 7.85 0.79, 7.89 0.83 M10.71 1.2 C12.84 0.83, 15.74 0.19, 17.21 1.3 C18.69 2.4, 19.33 5.61, 19.57 7.83 C19.82 10.04, 19.75 12.93, 18.67 14.59 C17.59 16.24, 15.18 17.29, 13.11 17.75 C11.05 18.21, 8.37 17.77, 6.29 17.35 C4.2 16.93, 1.58 17.11, 0.58 15.22 C-0.41 13.32, -0.09 7.98, 0.3 5.99 C0.69 4, 1.42 4.39, 2.95 3.26 C4.49 2.13, 8.11 -0.28, 9.5 -0.79 C10.89 -1.3, 10.89 -0.07, 11.3 0.2" stroke="#000000" stroke-width="1" fill="none"></path></g><g transform="translate(135.48785047754643 169.2709297137987) rotate(0 6 11.5)"><text x="6" y="18" font-family="Chinese, Segoe UI Emoji" font-size="20px" fill="#000000" text-anchor="middle" style="white-space: pre;" direction="ltr">α</text></g><g transform="translate(130.98785047754643 193.2709297137987) rotate(0 5.5 11.5)"><text x="5.5" y="18" font-family="Chinese, Segoe UI Emoji" font-size="20px" fill="#000000" text-anchor="middle" style="white-space: pre;" direction="ltr">β</text></g><g transform="translate(149.48785047754643 190.2709297137987) rotate(0 5 11.5)"><text x="5" y="18" font-family="Chinese, Segoe UI Emoji" font-size="20px" fill="#000000" text-anchor="middle" style="white-space: pre;" direction="ltr">γ</text></g><g stroke-linecap="round" transform="translate(186.48785047754643 101.2709297137987) rotate(0 39 19.5)"><path d="M52.61 1.66 C60.16 2.82, 69.01 6.53, 73.15 10.02 C77.28 13.5, 78.93 18.34, 77.42 22.55 C75.9 26.76, 70.47 32.55, 64.08 35.28 C57.69 38, 47.5 39.21, 39.1 38.88 C30.69 38.56, 20.23 36, 13.64 33.32 C7.04 30.65, 1.01 26.89, -0.49 22.82 C-1.99 18.74, 0.03 12.37, 4.64 8.86 C9.25 5.34, 18.34 2.77, 27.17 1.74 C36 0.7, 51.93 2.45, 57.62 2.65 C63.3 2.86, 61.71 2.74, 61.27 2.97 M33.92 -0.57 C41.6 -0.8, 53.13 1.98, 60.17 4.47 C67.2 6.97, 73.88 10.45, 76.11 14.39 C78.33 18.32, 76.8 24.25, 73.53 28.07 C70.26 31.89, 63.92 35.8, 56.48 37.31 C49.04 38.81, 36.87 37.96, 28.9 37.1 C20.94 36.24, 13.35 35.41, 8.68 32.16 C4.01 28.91, 0.49 22, 0.9 17.59 C1.32 13.17, 5.47 8.52, 11.15 5.67 C16.82 2.81, 31.05 1.46, 34.96 0.45 C38.87 -0.56, 34.55 -0.79, 34.58 -0.38" stroke="#000000" stroke-width="1" fill="none"></path></g><g transform="translate(208.98785047754643 108.2709297137987) rotate(0 18.5 11.5)"><text x="18.5" y="18" font-family="Chinese, Segoe UI Emoji" font-size="20px" fill="#000000" text-anchor="middle" style="white-space: pre;" direction="ltr">PLC</text></g><g stroke-linecap="round" transform="translate(324.48785047754643 102.2709297137987) rotate(0 12.5 13.5)"><path d="M6.89 1.96 C9.12 0.49, 12.19 -0.76, 14.87 -0.36 C17.55 0.04, 21.24 1.89, 22.97 4.38 C24.71 6.87, 25.62 11.69, 25.28 14.58 C24.95 17.47, 22.7 19.62, 20.94 21.72 C19.18 23.82, 17.15 26.63, 14.74 27.19 C12.33 27.74, 8.72 26.59, 6.5 25.07 C4.28 23.56, 2.45 20.93, 1.44 18.08 C0.43 15.24, -0.7 10.95, 0.43 8 C1.57 5.04, 6.75 1.54, 8.24 0.37 C9.73 -0.79, 9.19 0.71, 9.35 0.99 M12.86 -1.31 C15.24 -0.8, 19.6 3.11, 21.39 5.61 C23.18 8.12, 23.45 11.15, 23.58 13.73 C23.72 16.31, 23.58 19.17, 22.19 21.09 C20.81 23.01, 17.97 24.55, 15.26 25.25 C12.56 25.94, 8.1 26.15, 5.96 25.26 C3.82 24.36, 3.53 22.35, 2.42 19.87 C1.3 17.39, -1.13 13.32, -0.73 10.37 C-0.33 7.41, 2.14 3.91, 4.8 2.15 C7.47 0.4, 13.93 -0.09, 15.27 -0.16 C16.6 -0.22, 13.06 1.39, 12.81 1.76" stroke="#000000" stroke-width="1" fill="none"></path></g><g stroke-linecap="round"><g transform="translate(320.48785047754643 85.2709297137987) rotate(0 12.339289909577928 11.078163799741304)"><path d="M0.5 1.05 C2.59 4.81, 9.45 22.84, 13.6 22.42 C17.74 21.99, 23.39 2.36, 25.37 -1.5 M-0.69 0.56 C1.1 4.49, 8.19 23.82, 12.44 23.65 C16.68 23.49, 22.54 3.42, 24.8 -0.44" stroke="#000000" stroke-width="1" fill="none"></path></g></g><g transform="translate(353.48785047754643 91.2709297137987) rotate(0 23.5 12)"><text x="0" y="19" font-family="Cascadia, Segoe UI Emoji" font-size="20px" fill="#000000" text-anchor="start" style="white-space: pre;" direction="ltr">PIP2</text></g><g stroke-linecap="round"><g transform="translate(249.48785047754643 103.2709297137987) rotate(0 33.67429162040355 2.2928936134744617)"><path d="M-0.51 0.01 C10.92 0.54, 56.63 3.28, 67.85 4.05 M1.43 -1.03 C12.84 -0.37, 56.59 5.01, 67.35 5.62" stroke="#000000" stroke-width="1" fill="none"></path></g><g transform="translate(249.48785047754643 103.2709297137987) rotate(0 33.67429162040355 2.2928936134744617)"><path d="M38.34 14.62 C45.34 11.27, 53.26 11.53, 67.52 6.57 M38.43 13.22 C45.04 12.23, 52.08 10.81, 68.27 4.73" stroke="#000000" stroke-width="1" fill="none"></path></g><g transform="translate(249.48785047754643 103.2709297137987) rotate(0 33.67429162040355 2.2928936134744617)"><path d="M40.26 -5.81 C46.94 -4.26, 54.41 0.91, 67.52 6.57 M40.34 -7.21 C46.53 -3.53, 53.13 -0.27, 68.27 4.73" stroke="#000000" stroke-width="1" fill="none"></path></g></g><g stroke-linecap="round"><g transform="translate(153.48785047754643 158.2709297137987) rotate(0 13.959369524526437 -14.481371344393125)"><path d="M1.02 -0.73 C5.76 -5.6, 23.36 -23.75, 27.82 -28.57 M0.1 1.5 C4.72 -3.79, 22.31 -25.44, 26.78 -30.46" stroke="#000000" stroke-width="1" fill="none"></path></g><g transform="translate(153.48785047754643 158.2709297137987) rotate(0 13.959369524526437 -14.481371344393125)"><path d="M18.6 -11.84 C22.17 -16.61, 22.11 -22.19, 25.37 -31.94 M19.06 -10.85 C21.45 -14.81, 23.28 -18.47, 26.79 -29.82" stroke="#000000" stroke-width="1" fill="none"></path></g><g transform="translate(153.48785047754643 158.2709297137987) rotate(0 13.959369524526437 -14.481371344393125)"><path d="M8.07 -20.74 C14.3 -23.4, 16.85 -26.77, 25.37 -31.94 M8.53 -19.75 C13.02 -21.94, 17.01 -23.78, 26.79 -29.82" stroke="#000000" stroke-width="1" fill="none"></path></g></g><g stroke-linecap="round"><g transform="translate(317.1781703233719 135.48997447371482) rotate(0 -20.11519704396369 57.19349082785192)"><path d="M0.69 0.83 C-5.9 19.49, -33.25 94.01, -40.22 112.68 M-0.41 0.22 C-7.05 19.01, -33.98 95.17, -40.92 114.17" stroke="#000000" stroke-width="1" fill="none"></path></g><g transform="translate(317.1781703233719 135.48997447371482) rotate(0 -20.11519704396369 57.19349082785192)"><path d="M-39.68 84.95 C-41.01 90.75, -40.71 97.27, -39.97 114.93 M-40.42 85.04 C-41.46 91.42, -41.62 97.72, -41.89 113.69" stroke="#000000" stroke-width="1" fill="none"></path></g><g transform="translate(317.1781703233719 135.48997447371482) rotate(0 -20.11519704396369 57.19349082785192)"><path d="M-20.36 91.88 C-26.41 96.11, -30.78 100.95, -39.97 114.93 M-21.11 91.97 C-26.22 96.76, -30.43 101.6, -41.89 113.69" stroke="#000000" stroke-width="1" fill="none"></path></g></g><g stroke-linecap="round"><g transform="translate(349.48785047754643 136.2709297137987) rotate(0 32.65508555141747 37.19465247089511)"><path d="M0.52 1.18 C11.58 13.42, 55.09 61.71, 65.98 73.63 M-0.67 0.76 C10.27 12.63, 54.08 59.66, 65.02 71.84" stroke="#000000" stroke-width="1" fill="none"></path></g><g transform="translate(349.48785047754643 136.2709297137987) rotate(0 32.65508555141747 37.19465247089511)"><path d="M40.38 57.96 C46.54 61.28, 52.07 63.85, 66.43 70.46 M38.43 57.18 C44.76 61.74, 50.22 64.59, 65.36 71.71" stroke="#000000" stroke-width="1" fill="none"></path></g><g transform="translate(349.48785047754643 136.2709297137987) rotate(0 32.65508555141747 37.19465247089511)"><path d="M55.5 44.1 C57.68 51.16, 59.19 57.4, 66.43 70.46 M53.55 43.32 C56.42 51.22, 58.33 57.32, 65.36 71.71" stroke="#000000" stroke-width="1" fill="none"></path></g></g><g transform="translate(310.48785047754643 182.7709297137987) rotate(0 17.5 12)"><text x="0" y="19" font-family="Cascadia, Segoe UI Emoji" font-size="20px" fill="#000000" text-anchor="start" style="white-space: pre;" direction="ltr">IP₃</text></g><g transform="translate(401.48785047754643 215.7709297137987) rotate(0 11.5 12)"><text x="0" y="19" font-family="Cascadia, Segoe UI Emoji" font-size="20px" fill="#000000" text-anchor="start" style="white-space: pre;" direction="ltr">DG</text></g><g stroke-linecap="round" transform="translate(135.48785047754643 277.2709297137987) rotate(0 86.5 64.5)"><path d="M109.76 2.26 C121.68 3.89, 134.92 10.29, 144.2 16.44 C153.48 22.58, 160.75 30.4, 165.45 39.13 C170.16 47.85, 172.85 59.32, 172.42 68.77 C171.99 78.22, 168.98 87.82, 162.87 95.84 C156.77 103.86, 146.1 111.43, 135.79 116.9 C125.47 122.38, 113.25 127.19, 100.97 128.68 C88.7 130.17, 74.05 128.55, 62.12 125.83 C50.2 123.11, 38.76 118.59, 29.43 112.35 C20.1 106.12, 10.84 97.01, 6.13 88.42 C1.42 79.83, 0.46 70.07, 1.19 60.81 C1.91 51.54, 4.58 40.93, 10.5 32.82 C16.41 24.71, 26.16 17.5, 36.68 12.14 C47.2 6.78, 59.82 1.9, 73.61 0.66 C87.4 -0.59, 110.05 3.25, 119.43 4.67 C128.8 6.1, 130.22 8, 129.87 9.19 M70.69 1.44 C81.89 -1.31, 96.55 0.18, 108.34 2.72 C120.13 5.25, 132.02 10.81, 141.44 16.66 C150.86 22.5, 159.67 29.56, 164.87 37.78 C170.07 46.01, 172.92 56.36, 172.63 65.98 C172.34 75.6, 168.92 87.13, 163.15 95.5 C157.38 103.87, 148.05 110.99, 138.01 116.19 C127.97 121.4, 115.56 125.01, 102.89 126.74 C90.23 128.48, 74.15 128.8, 62.01 126.59 C49.88 124.38, 39.56 119.66, 30.08 113.48 C20.61 107.31, 10.39 98.32, 5.17 89.53 C-0.04 80.75, -2.41 70.14, -1.22 60.75 C-0.04 51.36, 5.72 41.33, 12.29 33.19 C18.86 25.06, 28.36 17.4, 38.2 11.92 C48.04 6.44, 65.83 1.74, 71.34 0.32 C76.84 -1.09, 71.39 2.2, 71.24 3.45" stroke="#000000" stroke-width="1" fill="none"></path></g><g transform="translate(205.48785047754643 318.7709297137987) rotate(0 11.5 12)"><text x="11.5" y="19" font-family="Cascadia, Segoe UI Emoji" font-size="20px" fill="#000000" text-anchor="middle" style="white-space: pre;" direction="ltr">ER</text></g><g stroke-linecap="round" transform="translate(261.48785047754643 267.2709297137987) rotate(0 13 23.5)"><path d="M9.5 -0.34 C12.29 -1.85, 17.25 -0.3, 19.88 2.26 C22.5 4.82, 24.2 10.2, 25.28 15.02 C26.35 19.84, 27.28 26.45, 26.33 31.19 C25.39 35.92, 22.04 40.91, 19.61 43.44 C17.18 45.97, 14.29 46.9, 11.76 46.35 C9.22 45.8, 6.31 43.8, 4.4 40.12 C2.49 36.43, 0.42 29.45, 0.29 24.25 C0.16 19.05, 1.84 12.93, 3.63 8.91 C5.42 4.88, 9.56 1.34, 11.04 0.1 C12.52 -1.15, 12.34 0.89, 12.51 1.41 M12.33 1.34 C14.85 1, 19.26 2.74, 21.29 5.65 C23.33 8.56, 24.24 14.11, 24.54 18.78 C24.85 23.45, 24.34 29.24, 23.13 33.67 C21.91 38.09, 19.36 43.36, 17.25 45.32 C15.13 47.28, 12.72 46.84, 10.44 45.44 C8.17 44.04, 5.28 40.8, 3.61 36.91 C1.94 33.02, 0.32 27.11, 0.41 22.1 C0.51 17.1, 2.12 10.52, 4.19 6.88 C6.26 3.23, 11.44 1.19, 12.85 0.24 C14.27 -0.7, 12.55 0.84, 12.7 1.19" stroke="#000000" stroke-width="1" fill="none"></path></g><g stroke-linecap="round"><g transform="translate(235.48785047754643 360.2709297137988) rotate(0 88.01093950306546 -54.98871618201099)"><path d="M0.09 -0.39 C6.79 -14.4, 11.31 -65.35, 40.85 -83.26 C70.39 -101.16, 154.66 -103.56, 177.35 -107.81 M-1.32 -1.64 C5.23 -15.5, 10.74 -63.65, 40.35 -81.64 C69.95 -99.63, 153.57 -105.26, 176.29 -109.59" stroke="#000000" stroke-width="1" fill="none"></path></g><g transform="translate(235.48785047754643 360.2709297137988) rotate(0 88.01093950306546 -54.98871618201099)"><path d="M149.07 -94.25 C159.31 -101.54, 170.27 -107.14, 176.48 -107.97 M149.91 -96.03 C156.34 -99.93, 160.68 -101.6, 175.69 -108.96" stroke="#000000" stroke-width="1" fill="none"></path></g><g transform="translate(235.48785047754643 360.2709297137988) rotate(0 88.01093950306546 -54.98871618201099)"><path d="M146.34 -114.58 C157.68 -114.66, 169.6 -113.05, 176.48 -107.97 M147.17 -116.36 C154.37 -115.87, 159.31 -113.12, 175.69 -108.96" stroke="#000000" stroke-width="1" fill="none"></path></g></g><g transform="translate(421.48785047754643 263.7709297137987) rotate(0 23.5 12)"><text x="0" y="19" font-family="Cascadia, Segoe UI Emoji" font-size="20px" fill="#000000" text-anchor="start" style="white-space: pre;" direction="ltr">Ca²⁺</text></g><g stroke-linecap="round" transform="translate(436.48785047754643 70.2709297137987) rotate(0 32.5 18)"><path d="M25.76 0.93 C31.96 0.18, 41.01 1.18, 47.02 2.97 C53.03 4.75, 58.99 8.21, 61.82 11.62 C64.66 15.03, 66.01 19.81, 64.05 23.42 C62.08 27.02, 55.9 31.15, 50.03 33.23 C44.16 35.3, 35.61 36.54, 28.83 35.88 C22.04 35.21, 14.2 31.93, 9.32 29.24 C4.44 26.55, 0.02 23.61, -0.47 19.76 C-0.96 15.9, 0.61 9.53, 6.36 6.12 C12.11 2.72, 27.99 0.32, 34.03 -0.67 C40.06 -1.66, 42.48 -0.25, 42.56 0.19 M40.68 2.13 C47.44 2.93, 57.18 5.3, 61.22 8.27 C65.26 11.25, 65.91 16.37, 64.93 19.97 C63.95 23.56, 60.47 27.31, 55.33 29.83 C50.19 32.36, 41.29 34.89, 34.08 35.12 C26.88 35.34, 17.7 33.43, 12.11 31.17 C6.52 28.92, 1.82 25.37, 0.56 21.6 C-0.7 17.82, 1.49 11.72, 4.55 8.53 C7.61 5.34, 12.64 3.61, 18.93 2.48 C25.22 1.35, 38.28 1.9, 42.31 1.76 C46.33 1.61, 43.36 1.41, 43.1 1.61" stroke="#000000" stroke-width="1" fill="none"></path></g><g transform="translate(451.48785047754643 76.2709297137987) rotate(0 17.5 12)"><text x="17.5" y="19" font-family="Cascadia, Segoe UI Emoji" font-size="20px" fill="#000000" text-anchor="middle" style="white-space: pre;" direction="ltr">PKC</text></g><g stroke-linecap="round"><g transform="translate(429.48785047754643 202.2709297137987) rotate(0 19.27744496092197 -42.784711065026926)"><path d="M-0.46 0.79 C5.91 -13.25, 32.38 -70.32, 39.02 -84.5 M1.5 0.16 C7.64 -14.23, 31.86 -71.96, 38.08 -86.36" stroke="#000000" stroke-width="1" fill="none"></path></g><g transform="translate(429.48785047754643 202.2709297137987) rotate(0 19.27744496092197 -42.784711065026926)"><path d="M37.82 -56.37 C37.96 -66.69, 38.88 -77.19, 37.93 -88.04 M35.94 -55.89 C37.88 -67.68, 37.59 -77.64, 37.87 -86.74" stroke="#000000" stroke-width="1" fill="none"></path></g><g transform="translate(429.48785047754643 202.2709297137987) rotate(0 19.27744496092197 -42.784711065026926)"><path d="M18.93 -64.4 C25.96 -71.71, 33.78 -79.28, 37.93 -88.04 M17.05 -63.92 C25.6 -72.85, 31.91 -80, 37.87 -86.74" stroke="#000000" stroke-width="1" fill="none"></path></g></g><g stroke-linecap="round"><g transform="translate(446.48785047754643 250.2709297137987) rotate(0 10.01536263357383 -69.15193456634879)"><path d="M0.49 0.59 C4.11 -22.46, 17.2 -115.65, 20.75 -138.89 M-0.72 -0.15 C2.81 -22.93, 15.98 -114.41, 19.67 -137.3" stroke="#000000" stroke-width="1" fill="none"></path></g><g transform="translate(446.48785047754643 250.2709297137987) rotate(0 10.01536263357383 -69.15193456634879)"><path d="M26.57 -108.31 C24.63 -112.95, 23.41 -119.69, 17.76 -137.58 M26.27 -107.46 C23.19 -116.53, 21.5 -124.93, 18.77 -137.99" stroke="#000000" stroke-width="1" fill="none"></path></g><g transform="translate(446.48785047754643 250.2709297137987) rotate(0 10.01536263357383 -69.15193456634879)"><path d="M6.28 -111.38 C8.74 -115.44, 11.93 -121.5, 17.76 -137.58 M5.98 -110.53 C8.99 -118.86, 13.42 -126.33, 18.77 -137.99" stroke="#000000" stroke-width="1" fill="none"></path></g></g><g transform="translate(519.4878504775464 287.7709297137987) rotate(0 17.5 12)"><text x="0" y="19" font-family="Cascadia, Segoe UI Emoji" font-size="20px" fill="#000000" text-anchor="start" style="white-space: pre;" direction="ltr">CaM</text></g><g stroke-linecap="round"><g transform="translate(462.48785047754643 284.2709297137987) rotate(0 25.22278059497478 5.2674106513941865)"><path d="M-0.71 0.56 C7.87 2.41, 42.89 9.1, 51.16 10.72 M1.12 -0.19 C9.67 1.35, 42.47 6.98, 50.81 8.98" stroke="#000000" stroke-width="1" fill="none"></path></g><g transform="translate(462.48785047754643 284.2709297137987) rotate(0 25.22278059497478 5.2674106513941865)"><path d="M26.55 14.74 C33.69 10.02, 39.89 11.69, 51.41 8.74 M25.17 13.49 C31.66 12.68, 36.16 11.1, 50.01 9.89" stroke="#000000" stroke-width="1" fill="none"></path></g><g transform="translate(462.48785047754643 284.2709297137987) rotate(0 25.22278059497478 5.2674106513941865)"><path d="M29.98 -2.36 C36.14 -2.43, 41.4 3.9, 51.41 8.74 M28.6 -3.61 C34.44 -0.75, 38.2 1.36, 50.01 9.89" stroke="#000000" stroke-width="1" fill="none"></path></g></g></svg>
