<svg version="1.1" xmlns="http://www.w3.org/2000/svg" viewBox="0 0 1228.1701712427753 784.2989662809372" width="2456.3403424855505" height="1568.5979325618744">
<!-- svg-source:excalidraw -->
    
  <defs>
<style>
        @font-face {
          font-family: "Virgil";
          src: url("https://excalidraw.com/Virgil.woff2");
        }
        @font-face {
          font-family: "Cascadia";
          src: url("https://excalidraw.com/Cascadia.woff2");
        }
      </style>
  </defs>
  <rect x="0" y="0" width="1228.1701712427753" height="784.2989662809372" fill="#ffffff"></rect><g stroke-linecap="round"><g transform="translate(405 27.26212260261775) rotate(0 40.627986948358966 148.38454806789161)"><path d="M0.69 1.11 C3.43 32.8, 21.54 150.12, 16.19 189.52 C10.84 228.93, -23.21 218.97, -31.42 237.52 C-39.62 256.07, -58.88 289.26, -33.03 300.84 C-7.18 312.41, 105.17 320.59, 123.69 306.98 C142.2 293.37, 90.48 235.6, 78.07 219.17 C65.66 202.75, 56.23 244.48, 49.21 208.42 C42.19 172.37, 37.86 39.43, 35.95 2.86 C34.04 -33.72, 37.33 -9.05, 37.74 -11.03 M-0.4 0.65 C2.19 32.56, 20.41 151.11, 15.21 190.81 C10 230.51, -23.68 220.86, -31.61 238.85 C-39.55 256.84, -58.14 287.35, -32.4 298.72 C-6.66 310.1, 104.25 319.99, 122.84 307.1 C141.43 294.2, 91.36 237.95, 79.13 221.36 C66.89 204.77, 56.72 244.01, 49.44 207.56 C42.16 171.12, 37.13 38.85, 35.43 2.7 C33.72 -33.44, 38.6 -7.35, 39.19 -9.29" stroke="#000000" stroke-width="1" fill="none"></path></g></g><g stroke-linecap="round"><g transform="translate(113.75 316.01212260261775) rotate(0 410.99465243716725 62.302691997587715)"><path d="M0.89 1.05 C30.66 -0.77, 139.82 -19.96, 178.95 -11.97 C218.08 -3.97, 195.42 38.87, 235.67 49 C275.92 59.12, 380.64 60.3, 420.46 48.79 C460.28 37.27, 445.31 -9.77, 474.6 -20.11 C503.89 -30.45, 576.32 -45.62, 596.18 -13.26 C616.05 19.11, 588.46 142.43, 593.8 174.1 C599.14 205.78, 620.17 209.32, 628.23 176.8 C636.3 144.29, 609.99 20.95, 642.17 -21 C674.35 -62.96, 791.6 -66.17, 821.3 -74.92 M-0.1 0.56 C29.5 -1.03, 138.88 -19.01, 178.11 -10.8 C217.33 -2.6, 194.89 39.67, 235.26 49.79 C275.62 59.91, 380.57 61.5, 420.29 49.91 C460.01 38.31, 444.53 -9.62, 473.57 -19.78 C502.62 -29.94, 574.41 -43.15, 594.56 -11.03 C614.71 21.09, 588.96 141.64, 594.46 172.94 C599.97 204.24, 619.34 209.29, 627.59 176.75 C635.85 144.22, 611.57 19.26, 643.98 -22.26 C676.4 -63.77, 792.72 -63.97, 822.09 -72.33" stroke="#000000" stroke-width="1" fill="none"></path></g></g><g stroke-linecap="round" transform="translate(392.5 279.76212260261775) rotate(0 8.125 6.25)"><path d="M5.43 -0.38 C6.95 -1.08, 9.15 -0.79, 10.7 -0.12 C12.25 0.56, 13.87 2.28, 14.72 3.65 C15.57 5.02, 16.14 6.75, 15.8 8.09 C15.45 9.43, 13.96 11.07, 12.68 11.68 C11.41 12.3, 9.99 12.07, 8.16 11.79 C6.33 11.52, 3.11 10.81, 1.69 10.04 C0.28 9.27, -0.32 8.3, -0.34 7.2 C-0.35 6.11, 0.41 4.67, 1.62 3.47 C2.82 2.26, 5.6 0.65, 6.89 -0.02 C8.18 -0.69, 9.2 -0.64, 9.35 -0.55 M6.24 0.88 C7.66 0.55, 9.59 -1.06, 11.02 -0.42 C12.45 0.22, 13.96 3.21, 14.81 4.72 C15.66 6.22, 16.57 7.36, 16.13 8.6 C15.7 9.85, 13.4 11.44, 12.19 12.18 C10.99 12.92, 10.41 13.2, 8.91 13.04 C7.4 12.88, 4.55 12.48, 3.15 11.23 C1.76 9.98, 1.03 7.21, 0.54 5.54 C0.04 3.88, -0.92 2.3, 0.21 1.24 C1.34 0.19, 6.56 -0.56, 7.31 -0.78 C8.06 -1.01, 4.9 -0.27, 4.71 -0.09" stroke="#000000" stroke-width="1" fill="none"></path></g><g stroke-linecap="round" transform="translate(398.75 301.01212260261775) rotate(0 8.125 6.25)"><path d="M7.76 -0.52 C9.58 -0.82, 11.98 -0.6, 13.39 0.39 C14.8 1.38, 15.96 4.06, 16.22 5.42 C16.48 6.78, 15.84 7.31, 14.92 8.53 C14 9.76, 12.22 12.1, 10.69 12.79 C9.15 13.48, 7.34 13.13, 5.69 12.67 C4.05 12.22, 1.59 11.24, 0.83 10.08 C0.06 8.93, 0.68 7.09, 1.08 5.73 C1.48 4.38, 1.91 3.05, 3.23 1.96 C4.55 0.87, 8.12 -0.37, 9.01 -0.82 C9.91 -1.27, 8.53 -0.87, 8.61 -0.74 M4.08 1.5 C5.55 0.82, 8.23 -0.5, 9.82 -0.18 C11.42 0.14, 12.79 2.53, 13.63 3.43 C14.48 4.33, 14.94 3.86, 14.9 5.22 C14.85 6.58, 14.42 10.58, 13.35 11.6 C12.28 12.62, 10.03 11.54, 8.48 11.31 C6.93 11.09, 5.44 10.67, 4.05 10.25 C2.67 9.83, 0.83 10.08, 0.15 8.79 C-0.54 7.5, -0.88 3.92, -0.03 2.51 C0.82 1.11, 4.59 0.58, 5.25 0.37 C5.91 0.16, 3.88 0.97, 3.92 1.25" stroke="#000000" stroke-width="1" fill="none"></path></g><g stroke-linecap="round" transform="translate(423.75 291.01212260261775) rotate(0 8.125 6.25)"><path d="M6.02 -0.03 C7.86 -0.45, 11.32 -0.39, 12.82 0.38 C14.31 1.16, 14.54 3.37, 15 4.63 C15.46 5.9, 15.98 6.73, 15.56 7.97 C15.13 9.21, 13.84 11.51, 12.45 12.08 C11.06 12.65, 8.82 11.55, 7.22 11.4 C5.62 11.26, 4.19 11.92, 2.83 11.21 C1.47 10.5, -0.81 8.66, -0.92 7.15 C-1.03 5.63, 0.63 3.19, 2.18 2.11 C3.74 1.04, 7.2 1.14, 8.4 0.68 C9.6 0.23, 9.5 -0.58, 9.39 -0.63 M8.92 0.66 C10.29 1.01, 12.18 1.92, 13.39 2.86 C14.6 3.8, 15.79 5.34, 16.17 6.29 C16.54 7.24, 16.65 7.41, 15.64 8.58 C14.63 9.74, 11.79 12.92, 10.12 13.27 C8.45 13.62, 6.98 11.33, 5.6 10.69 C4.22 10.05, 2.91 10.52, 1.83 9.43 C0.76 8.35, -0.98 5.76, -0.83 4.2 C-0.67 2.65, 1.04 0.7, 2.77 0.11 C4.5 -0.48, 8.53 0.64, 9.53 0.68 C10.53 0.72, 8.8 0.4, 8.77 0.36" stroke="#000000" stroke-width="1" fill="none"></path></g><g stroke-linecap="round" transform="translate(428.75 307.26212260261775) rotate(0 8.125 6.25)"><path d="M11.47 0.67 C12.85 1.09, 13.66 1.73, 14.37 2.71 C15.08 3.69, 15.79 5.08, 15.73 6.53 C15.66 7.98, 15.21 10.39, 13.97 11.41 C12.72 12.43, 10.04 12.71, 8.28 12.64 C6.52 12.57, 4.81 11.82, 3.42 10.97 C2.03 10.13, 0.44 9.01, -0.06 7.56 C-0.56 6.11, -0.29 3.61, 0.43 2.28 C1.14 0.95, 2.35 -0.1, 4.23 -0.42 C6.11 -0.74, 10.41 0.15, 11.72 0.36 C13.04 0.56, 12.21 0.6, 12.13 0.82 M8.04 -1.31 C9.87 -1.49, 12.16 0.77, 13.35 1.6 C14.55 2.42, 14.6 2.28, 15.21 3.61 C15.82 4.95, 17.6 8.13, 17.03 9.59 C16.47 11.06, 13.5 12.18, 11.84 12.41 C10.18 12.64, 8.92 11.38, 7.07 10.96 C5.22 10.54, 2.06 10.59, 0.72 9.9 C-0.61 9.2, -1.08 7.99, -0.95 6.79 C-0.82 5.58, 0.13 3.77, 1.5 2.67 C2.88 1.57, 6.14 0.49, 7.31 0.21 C8.49 -0.07, 8.52 0.72, 8.55 1" stroke="#000000" stroke-width="1" fill="none"></path></g><g stroke-linecap="round" transform="translate(448.75 283.51212260261775) rotate(0 8.125 6.25)"><path d="M10.17 -0.5 C12.05 -0.1, 14.86 1.31, 15.9 2.74 C16.95 4.18, 16.97 6.71, 16.46 8.12 C15.94 9.54, 14.07 10.43, 12.8 11.22 C11.52 12, 10.39 12.84, 8.82 12.83 C7.24 12.83, 4.88 12.06, 3.36 11.21 C1.84 10.36, 0.09 8.94, -0.28 7.73 C-0.66 6.52, 0.28 5.21, 1.1 3.97 C1.92 2.73, 3.07 0.89, 4.64 0.3 C6.22 -0.3, 9.28 0.24, 10.55 0.39 C11.82 0.53, 12.21 1.1, 12.27 1.17 M6.8 -0.82 C8.41 -1.52, 10.44 -1.24, 11.64 -0.69 C12.85 -0.14, 13.44 0.97, 14.02 2.47 C14.61 3.96, 15.28 6.58, 15.14 8.28 C15 9.97, 14.29 11.92, 13.17 12.64 C12.04 13.37, 10.32 12.88, 8.39 12.64 C6.46 12.39, 2.84 12.25, 1.6 11.2 C0.36 10.14, 0.89 7.58, 0.95 6.31 C1.02 5.04, 0.96 4.42, 1.97 3.58 C2.98 2.74, 6.15 2.01, 7.04 1.28 C7.93 0.55, 7.32 -0.66, 7.31 -0.81" stroke="#000000" stroke-width="1" fill="none"></path></g><g stroke-linecap="round" transform="translate(456.25 302.26212260261775) rotate(0 8.125 6.25)"><path d="M4.4 -0.37 C5.81 -0.69, 8.52 -0.05, 10.36 0.68 C12.19 1.4, 14.34 2.87, 15.4 4 C16.47 5.13, 17.18 6.22, 16.75 7.45 C16.31 8.68, 14.13 10.6, 12.79 11.38 C11.46 12.17, 10.31 12.12, 8.72 12.16 C7.13 12.2, 4.55 12.31, 3.24 11.62 C1.92 10.93, 1.04 9.57, 0.82 8.03 C0.61 6.48, 0.82 3.73, 1.95 2.34 C3.08 0.96, 6.58 0.02, 7.61 -0.26 C8.64 -0.53, 8.21 0.58, 8.13 0.69 M9.41 0.33 C11.13 0.71, 12.26 1.8, 13.14 2.86 C14.03 3.92, 14.49 5.66, 14.71 6.72 C14.94 7.77, 15.19 8.35, 14.5 9.18 C13.82 10, 12.1 11.4, 10.6 11.65 C9.09 11.9, 7.24 11.03, 5.47 10.68 C3.7 10.33, 1.04 10.45, -0.03 9.57 C-1.11 8.7, -1.43 6.59, -0.97 5.43 C-0.52 4.27, 1.39 3.71, 2.71 2.6 C4.03 1.5, 5.91 -0.75, 6.97 -1.19 C8.02 -1.63, 8.6 -0.32, 9.03 -0.04" stroke="#000000" stroke-width="1" fill="none"></path></g><g stroke-linecap="round" transform="translate(470 269.76212260261775) rotate(0 8.125 6.25)"><path d="M9.44 1.16 C11.1 1.47, 14.02 1.61, 15.21 2.62 C16.41 3.63, 16.95 6, 16.6 7.23 C16.25 8.46, 14.37 9.23, 13.1 9.99 C11.84 10.76, 10.48 11.66, 9 11.82 C7.53 11.98, 5.63 11.58, 4.26 10.95 C2.9 10.33, 1.41 9.12, 0.83 8.06 C0.25 7, 0.08 5.83, 0.79 4.61 C1.5 3.39, 3.33 1.34, 5.07 0.74 C6.8 0.15, 10.42 1.17, 11.21 1.06 C11.99 0.96, 9.92 0.24, 9.8 0.09 M3.78 1.43 C5.2 0.64, 7.71 -0.69, 9.44 -0.64 C11.17 -0.59, 12.82 0.5, 14.15 1.73 C15.47 2.97, 17.4 4.99, 17.36 6.75 C17.33 8.5, 15.62 11.25, 13.95 12.27 C12.28 13.29, 9.02 12.97, 7.34 12.86 C5.67 12.76, 5 12.5, 3.9 11.63 C2.79 10.76, 1.29 8.97, 0.7 7.65 C0.11 6.32, -0.41 4.71, 0.35 3.7 C1.12 2.69, 4.62 2.13, 5.28 1.57 C5.95 1.02, 4.47 0.48, 4.36 0.37" stroke="#000000" stroke-width="1" fill="none"></path></g><g stroke-linecap="round" transform="translate(477.5 299.76212260261775) rotate(0 8.125 6.25)"><path d="M4.68 1.38 C6.1 0.77, 9.25 -0.25, 11.15 0.02 C13.05 0.28, 15.27 1.69, 16.07 2.96 C16.87 4.22, 16.53 6.25, 15.95 7.6 C15.37 8.95, 13.92 10.26, 12.6 11.06 C11.27 11.87, 9.72 12.45, 8.02 12.45 C6.32 12.45, 3.8 11.79, 2.4 11.06 C1 10.33, -0.1 9.31, -0.38 8.08 C-0.67 6.84, -0.55 4.79, 0.7 3.63 C1.94 2.46, 5.83 1.59, 7.09 1.09 C8.34 0.6, 8.37 0.81, 8.21 0.67 M10.69 -0.31 C12.16 0.38, 13.73 2.52, 14.54 4 C15.36 5.48, 15.97 7.21, 15.59 8.55 C15.2 9.89, 13.5 11.57, 12.24 12.05 C10.99 12.53, 9.93 11.85, 8.06 11.42 C6.18 10.99, 2.45 10.2, 1.01 9.47 C-0.42 8.74, -0.72 8.02, -0.56 7.04 C-0.41 6.06, 1.02 4.72, 1.96 3.57 C2.9 2.42, 3.48 0.81, 5.09 0.13 C6.71 -0.54, 10.51 -0.57, 11.63 -0.49 C12.75 -0.42, 11.98 0.25, 11.81 0.59" stroke="#000000" stroke-width="1" fill="none"></path></g><g stroke-linecap="round" transform="translate(505 271.01212260261775) rotate(0 7.5 11.25)"><path d="M8.7 -0.42 C9.63 5.25, 13.18 8.6, 15.08 11.29 M7.82 0.59 C8.94 3.24, 10.9 5.07, 14.97 11.75 M15.31 11.04 C13.02 15.03, 11.44 17.57, 7 23.06 M14.6 12.09 C13.23 15.53, 10.51 18.5, 7.94 22.91 M8.61 21.52 C6.84 19.08, 4.01 18.48, -0.75 13.23 M7.85 23.1 C5.26 19, 3.28 16.24, -0.14 11.58 M0.28 12.81 C3.93 8.69, 4.64 2, 7.66 0.12 M0.25 11.45 C2.53 8.63, 4.86 3.91, 7.61 0.13" stroke="#000000" stroke-width="1" fill="none"></path></g><g transform="translate(515 240.26212260261772) rotate(0 70 14)"><text x="0" y="21" font-family="Cascadia, Segoe UI Emoji" font-size="20px" fill="#000000" text-anchor="start" style="white-space: pre;" direction="ltr">电压门控钙通道</text></g><g stroke-linecap="round" transform="translate(387.5 357.26212260261775) rotate(0 8.125 19.375)"><path d="M-0.41 1.61 C5.05 -0.27, 8.32 -0.56, 17.8 -0.49 M-0.01 0.23 C5.72 0.73, 10.4 -0.11, 15.78 -0.28 M14.55 0.16 C18.14 12.91, 17.71 28.36, 17.13 37.15 M16.85 -0.72 C15.15 11.16, 16.7 24.51, 16.44 38.99 M15.12 37.34 C8.65 38.65, 4.36 40.01, 0.39 37.88 M16.53 39.38 C9.85 39.44, 4.79 38.43, 0.69 39 M-1.55 39.08 C0.97 29.14, 0.96 20.83, -1.57 1.89 M0.67 39.39 C0.79 31.35, -0.11 23.65, -0.55 -0.19" stroke="#000000" stroke-width="1" fill="none"></path></g><g stroke-linecap="round" transform="translate(418.75 356.01212260261775) rotate(0 8.125 19.375)"><path d="M0.12 -0.57 C7 1.11, 9.65 -1.44, 15.02 0.96 M0.56 0.75 C5.54 -0.6, 11.22 -0.84, 16.24 0.05 M17.18 -1.25 C16.74 15.52, 17.89 27.79, 17.87 38.27 M15.78 -0.29 C17 9.15, 16.74 20.28, 16.35 39.17 M14.74 37.88 C9.83 39.98, 4.78 39.85, 1 38.23 M15.5 38.78 C9.89 38.92, 4.03 39.03, 0.75 37.94 M-1.09 40.61 C-0.22 22.97, -1.66 9.87, -0.57 0.35 M0.43 38.31 C-0.37 24.11, 0.27 12.04, 0.48 -0.79" stroke="#000000" stroke-width="1" fill="none"></path></g><g stroke-linecap="round" transform="translate(458.75 352.26212260261775) rotate(0 8.125 19.375)"><path d="M0.17 0.69 C5 -1.35, 8.77 -1.58, 15.38 -0.17 M0.5 -0.26 C6.71 -0.54, 11.76 -0.84, 16.28 0.02 M18.09 -2 C18.28 13.98, 15.42 24.08, 18.11 38.8 M15.96 0.18 C16.54 10.77, 15.42 20.93, 15.81 38.58 M17.02 37.46 C11.18 38.24, 7.65 39.15, -0.62 40.13 M16.46 38.6 C10.62 38.74, 3.54 39.32, -0.68 38.74 M1.34 38.34 C-0.42 28.61, 1.48 19.93, -1.73 0.23 M0.59 39.5 C-0.86 26.34, -0.12 14.02, 0.08 0.09" stroke="#000000" stroke-width="1" fill="none"></path></g><g stroke-linecap="round" transform="translate(500 351.01212260261775) rotate(0 8.125 19.375)"><path d="M-1.41 0.73 C6.36 0.88, 10.36 0.55, 16.2 0.12 M0.18 0.13 C4.68 0.63, 7.37 -0.16, 15.73 -0.3 M15.21 -0.92 C15.06 12.03, 15.47 29.02, 16.62 39.51 M15.81 -0.65 C15.27 12.47, 16.38 24.85, 17.03 39.59 M17.25 40.16 C14.17 39.3, 10.91 37.57, 1 40.32 M16.34 38.82 C12.13 38.4, 6.52 38.99, 0.56 39.52 M0.2 38.76 C1.38 22.71, 0.18 10.08, -0.1 1.18 M0.15 38.05 C0.12 27.34, 0.64 17.79, 0.68 0.23" stroke="#000000" stroke-width="1" fill="none"></path></g><g transform="translate(250 391.51212260261775) rotate(0 45 14)"><text x="0" y="21" font-family="Cascadia, Segoe UI Emoji" font-size="20px" fill="#000000" text-anchor="start" style="white-space: pre;" direction="ltr">N₂型AchR</text></g><g stroke-linecap="round" transform="translate(160 299.76212260261775) rotate(0 11.25 9.375)"><path d="M-1.13 1.71 C5.03 -0.3, 14 -1.58, 24.01 0.64 M0.47 0.07 C6.1 -0.27, 11.15 0.02, 21.57 0.99 M23.84 -1.64 C21.95 6.48, 23.54 8.81, 20.67 18.97 M21.71 -0.5 C21.79 6.59, 23.53 12.05, 21.96 18.67 M23.24 19.71 C13.05 18.84, 3.68 18.45, -1.87 16.95 M22.41 19.56 C18.69 18.54, 13.97 19.19, -0.09 18.39 M0.2 19.3 C-0.45 12.53, 0.31 6.84, 1.21 -1.39 M-0.85 19.54 C0.76 13.34, -0.56 9.7, -0.59 0.68" stroke="#000000" stroke-width="1" fill="none"></path></g><g stroke-linecap="round" transform="translate(207.5 294.76212260261775) rotate(0 11.25 9.375)"><path d="M-1.47 -0.44 C5.96 -1.8, 13.74 -1.96, 22.75 -0.19 M0.63 0.41 C8.49 -0.31, 16.96 0.4, 22.15 0.11 M22.87 -1.4 C23.67 4.78, 21.79 12.67, 21.5 17.04 M21.97 0.84 C22.07 7.88, 21.77 14.03, 22.65 18.49 M22.19 20.17 C17.03 18.31, 11.6 18.4, -0.48 16.78 M21.81 19.11 C16.19 18.33, 9.08 18.75, -0.55 18.77 M1.87 18.6 C0.72 14.81, -0.52 8.93, 1.63 -1.73 M0.01 19.33 C-0.07 13.79, -0.92 8.44, 0.73 -0.35" stroke="#000000" stroke-width="1" fill="none"></path></g><g stroke-linecap="round" transform="translate(630 281.01212260261775) rotate(0 11.25 9.375)"><path d="M0.42 -1.66 C7.52 0.56, 11.78 -2.1, 22.3 0.31 M-0.49 -0.95 C5.36 -0.82, 12.02 1.02, 23.42 -0.42 M21.16 -1.62 C23.16 5.76, 21 14.75, 23.36 17.15 M22.62 0.17 C21.71 7.73, 22.04 14.34, 22 18.78 M21.55 17.31 C12.95 19.76, 5.25 17.55, 1.88 19.72 M22.33 17.93 C14.03 18, 4.87 19.34, 0.58 18.07 M0.3 17.59 C-1.78 10.83, 0.36 7.39, 0.05 -1.51 M-0.25 17.84 C0.47 12.4, -0.48 5.62, 0.48 -0.34" stroke="#000000" stroke-width="1" fill="none"></path></g><g stroke-linecap="round" transform="translate(260 293.51212260261775) rotate(0 11.25 9.375)"><path d="M0.29 0.96 C5.71 1.16, 14.03 -1.38, 22.05 0.12 M-0.06 0.42 C6.76 0.1, 11.82 -0.58, 22.45 0.05 M23.83 1.69 C24 6.69, 21.77 13.45, 21.17 18.9 M23.24 -0.08 C23.22 3.01, 23.15 7.57, 21.8 19.28 M22.04 19.19 C17.63 18.63, 12.47 18.36, -0.7 19.76 M22.3 17.91 C17.4 18.77, 13.4 18.77, -0.06 18.9 M-0.82 19.97 C0.71 15.69, -1.07 8.92, 1.72 0.82 M-0.07 19.59 C-0.01 13.1, 0.54 8.2, -0.28 -0.83" stroke="#000000" stroke-width="1" fill="none"></path></g><g transform="translate(183.75 254.26242777839897) rotate(0 70 13)"><text x="0" y="21" font-family="Chinese, Segoe UI Emoji" font-size="20px" fill="#000000" text-anchor="start" style="white-space: pre;" direction="ltr">电压门控钠通道</text></g><g transform="translate(10 394.762427778399) rotate(0 110.5 13)"><text x="0" y="21" font-family="Chinese, Segoe UI Emoji" font-size="20px" fill="#000000" text-anchor="start" style="white-space: pre;" direction="ltr">对Na⁺,K⁺,Ca²⁺都有通透性</text></g><g transform="translate(87.5 469.762427778399) rotate(0 60.5 13)"><text x="0" y="21" font-family="Chinese, Segoe UI Emoji" font-size="20px" fill="#000000" text-anchor="start" style="white-space: pre;" direction="ltr">对Cl⁻无通透性</text></g><g stroke-linecap="round"><g transform="translate(766.25 330.1083445264459) rotate(0 225.5290060914167 215.16061604436635)"><path d="M-0.86 1.12 C0.92 52.7, 6.48 237.65, 9.57 310.25 C12.66 382.86, 9.29 417.12, 17.67 436.75 C26.06 456.37, 52.96 431.59, 59.89 428.01 C66.82 424.43, 14 419.6, 59.25 415.28 C104.5 410.97, 311.66 409.12, 331.39 402.12 C351.12 395.11, 222.68 376.49, 177.63 373.25 C132.59 370.01, 75.98 387.37, 61.13 382.69 C46.29 378, 23.56 355.02, 88.57 345.15 C153.58 335.28, 456.98 328.98, 451.19 323.45 C445.39 317.93, 61.88 324.02, 53.82 312.02 C45.77 300.01, 404.62 258.61, 402.88 251.44 C401.14 244.26, 46.18 280.03, 43.39 268.99 C40.6 257.94, 387.01 193.87, 386.16 185.17 C385.31 176.47, 42.78 224.77, 38.29 216.8 C33.8 208.82, 358.91 147.18, 359.22 137.31 C359.53 127.45, 41.94 165.11, 40.16 157.59 C38.38 150.06, 348.33 100.68, 348.56 92.16 C348.8 83.65, 41.88 116.13, 41.58 106.49 C41.27 96.86, 346.79 41.66, 346.71 34.37 C346.64 27.09, 44.02 70.29, 41.13 62.76 C38.23 55.23, 336.06 -0.33, 329.33 -10.81 C322.6 -21.29, 55.3 -1.63, 0.73 -0.13 M0.89 0.66 C2.58 51.8, 5.21 235.93, 8.39 308.26 C11.58 380.6, 11.89 414.59, 20 434.66 C28.12 454.74, 50.24 431.87, 57.08 428.73 C63.92 425.59, 15.08 420.35, 61.05 415.82 C107.01 411.29, 313.43 408.79, 332.87 401.53 C352.31 394.28, 223.05 374.98, 177.69 372.3 C132.33 369.62, 75.24 390.19, 60.7 385.45 C46.16 380.7, 25.26 354.28, 90.46 343.85 C155.67 333.42, 457.97 328.03, 451.92 322.85 C445.87 317.66, 62.56 324.7, 54.18 312.75 C45.81 300.79, 403.34 258.52, 401.66 251.11 C399.98 243.7, 46.8 279.3, 44.09 268.29 C41.38 257.28, 386.36 193.8, 385.41 185.06 C384.46 176.33, 42.64 223.63, 38.37 215.87 C34.11 208.1, 359.24 148.16, 359.85 138.47 C360.45 128.78, 44.11 165.42, 42 157.73 C39.88 150.04, 347.45 100.94, 347.18 92.35 C346.9 83.77, 40.43 116.13, 40.36 106.22 C40.29 96.32, 346.74 40.34, 346.78 32.92 C346.83 25.5, 43.44 68.69, 40.63 61.71 C37.82 54.74, 336.62 1.43, 329.92 -8.93 C323.22 -19.28, 55.38 -1.4, 0.44 -0.42" stroke="#000000" stroke-width="1" fill="none"></path></g></g><g stroke-linecap="round" transform="translate(727.5 348.8583445264459) rotate(0 13.125 15)"><path d="M13.63 -1.24 C18.32 6.35, 20.42 9.12, 24.55 17.68 M14.8 0.39 C16.98 4.39, 20.92 8.01, 25.26 16.09 M26.92 14.73 C23.31 20.91, 17.22 25.86, 12.44 30.71 M25.43 16.85 C21.36 20.86, 16.93 26.11, 13.32 30.77 M15.75 30.13 C8.24 26.5, 5.76 21.45, -1.33 17.77 M13.03 30.41 C9.35 27.14, 7.64 23.08, -0.71 16.15 M0.03 16 C4.75 13.51, 6.97 10.01, 14.29 -1.57 M0.35 16.37 C4.86 9.21, 10.01 3.51, 13.45 -0.37" stroke="#000000" stroke-width="1" fill="none"></path></g><g stroke-linecap="round" transform="translate(723.75 397.6083445264459) rotate(0 13.125 13.75)"><path d="M14.75 0.27 C18.83 4.28, 25.18 10.16, 27.34 14.35 M14.67 0.86 C16.76 2.29, 19.15 5.24, 27.15 14.06 M27.51 14.33 C24.15 18.43, 17.43 23.7, 15.66 27.39 M25.6 13.55 C21.89 17.98, 17.76 23.73, 13.82 26.72 M14.77 28.77 C7.82 23.6, 2.52 17.07, 1.36 15.88 M13.76 27.64 C11.13 24.6, 6.34 20.21, -0.91 13.29 M-0.13 15.2 C4.72 8.99, 7.44 8.7, 14.36 -1.65 M-0.12 13.75 C4.67 8.36, 10.11 3.74, 13.28 0.94" stroke="#000000" stroke-width="1" fill="none"></path></g><g stroke-linecap="round" transform="translate(731.25 446.3583445264459) rotate(0 11.25 13.75)"><path d="M13.49 -1.37 C15.58 5.47, 21.37 11.57, 21.76 13.46 M11.35 -0.72 C14.01 3.48, 16.77 5.09, 22.73 14.61 M21.89 12.46 C18.83 17.92, 15.11 21.25, 12.23 26.7 M22.72 13.45 C19.88 17.32, 18.67 19.24, 12.81 27.3 M10.8 27.16 C8.58 25.9, 5.66 20.27, 0.7 15.15 M11.58 26.97 C9.56 25.34, 7.39 21.04, -0.84 14.38 M0.91 13.4 C5.23 9.78, 10.48 2.08, 11.12 -1.82 M-0.34 14.26 C3.54 11.31, 6.51 8.01, 11.08 0.41" stroke="#000000" stroke-width="1" fill="none"></path></g><g stroke-linecap="round" transform="translate(755 352.6083445264459) rotate(0 17.5 13.75)"><path d="M13.13 -0.31 C16.43 -1.34, 21.66 -0.91, 24.89 0.46 C28.12 1.83, 31.02 5.23, 32.52 7.9 C34.03 10.57, 34.72 13.76, 33.9 16.49 C33.09 19.23, 30.62 22.32, 27.63 24.3 C24.64 26.27, 19.58 28.44, 15.95 28.37 C12.33 28.3, 8.66 25.94, 5.9 23.87 C3.14 21.8, -0.2 18.87, -0.6 15.95 C-1 13.03, 1.07 8.93, 3.49 6.35 C5.91 3.78, 11.79 1.6, 13.91 0.51 C16.03 -0.57, 15.9 -0.18, 16.22 -0.15 M11.92 0.74 C15.49 -0.42, 22.75 -0.72, 26.49 0.32 C30.22 1.35, 32.88 3.87, 34.32 6.94 C35.76 10.01, 36.31 15.96, 35.14 18.76 C33.97 21.56, 30.48 22.43, 27.3 23.75 C24.13 25.07, 19.77 26.52, 16.08 26.7 C12.4 26.88, 7.99 26.74, 5.19 24.82 C2.39 22.91, -0.46 18.21, -0.71 15.21 C-0.95 12.22, 1.36 9.11, 3.73 6.87 C6.09 4.63, 11.92 3.06, 13.48 1.78 C15.05 0.51, 12.98 -0.73, 13.12 -0.79" stroke="#000000" stroke-width="1" fill="none"></path></g><g stroke-linecap="round" transform="translate(755 397.6083445264459) rotate(0 17.5 13.75)"><path d="M21.95 0.48 C25.49 0.74, 28.58 2.13, 30.74 4.51 C32.91 6.89, 34.91 11.58, 34.95 14.78 C34.99 17.97, 33.47 21.53, 30.98 23.65 C28.48 25.78, 23.77 27.25, 19.97 27.53 C16.18 27.82, 11.51 26.91, 8.2 25.35 C4.89 23.8, 1.29 20.84, 0.12 18.19 C-1.05 15.55, -0.4 12.18, 1.19 9.49 C2.78 6.79, 5.45 3.32, 9.63 2.04 C13.82 0.75, 22.98 1.56, 26.3 1.79 C29.61 2.01, 29.95 3.28, 29.53 3.38 M21.06 1.1 C24.42 1.77, 30.44 3.82, 32.63 6.11 C34.81 8.4, 34.49 12.07, 34.17 14.84 C33.85 17.62, 33.22 20.42, 30.71 22.75 C28.2 25.08, 23.25 28.52, 19.13 28.81 C15.01 29.1, 9.17 26.36, 5.99 24.48 C2.81 22.6, 0.76 20.51, 0.03 17.52 C-0.69 14.54, -0.24 9.09, 1.63 6.57 C3.49 4.06, 7.9 3.34, 11.23 2.43 C14.56 1.52, 19.67 1.49, 21.62 1.12 C23.57 0.74, 23.03 0.09, 22.94 0.19" stroke="#000000" stroke-width="1" fill="none"></path></g><g stroke-linecap="round" transform="translate(756.25 443.8583445264459) rotate(0 17.5 13.75)"><path d="M12.64 -0.37 C16.15 -1.04, 21.28 0.19, 24.89 1.7 C28.49 3.21, 32.54 5.97, 34.27 8.69 C36 11.4, 36.63 15.15, 35.28 17.97 C33.94 20.8, 29.44 23.99, 26.21 25.64 C22.99 27.29, 19.48 28.14, 15.95 27.87 C12.42 27.6, 7.73 26.26, 5.04 24.02 C2.35 21.78, 0.21 17.61, -0.21 14.43 C-0.63 11.25, 0.12 7.31, 2.53 4.93 C4.93 2.54, 12.16 0.84, 14.21 0.13 C16.25 -0.58, 14.75 0.3, 14.81 0.66 M25.8 2.84 C28.99 4.17, 32.2 6.96, 33.38 9.64 C34.56 12.31, 33.83 16.28, 32.87 18.87 C31.91 21.45, 30.55 23.53, 27.64 25.13 C24.73 26.73, 19.39 29, 15.39 28.48 C11.39 27.96, 6.17 24.37, 3.64 21.99 C1.11 19.6, 0.15 17.01, 0.2 14.17 C0.25 11.33, 1.51 7.35, 3.94 4.94 C6.37 2.54, 11.35 0.16, 14.79 -0.27 C18.24 -0.7, 22.9 1.94, 24.61 2.38 C26.32 2.82, 25.27 2.24, 25.07 2.36" stroke="#000000" stroke-width="1" fill="none"></path></g><g stroke-linecap="round" transform="translate(927.5 345.1083445264459) rotate(0 10 13.125)"><path d="M-0.08 2 C2.89 0.42, 10.15 0.69, 21.88 -1 M-0.9 0.25 C3.84 0.5, 8.71 -1.09, 19.72 0.93 M21.45 0.36 C18.76 7.56, 19.83 15.04, 18.51 24.57 M20.38 0.49 C20.32 9.18, 20.04 18.41, 20.93 26.74 M20.63 26.32 C13.57 24.72, 7.52 25.7, 0.68 28.08 M20.44 27.24 C15.82 26.91, 10.79 26.06, -0.95 25.47 M1.61 27.14 C1.76 17.38, 1.29 4.99, -1.81 1.04 M0.9 26.6 C0.3 16.62, 0.9 5.49, -0.56 0.28" stroke="#000000" stroke-width="1" fill="none"></path></g><g stroke-linecap="round" transform="translate(932.5 392.6083445264459) rotate(0 10 13.125)"><path d="M0.07 -1.13 C6.31 -1.95, 15.25 0.62, 21.83 -1.06 M0.99 0.76 C5.57 0.58, 9.69 -1.03, 19.22 0.82 M20.89 1.91 C21.23 10.81, 18.86 16.93, 21.04 28.23 M20.35 0.26 C20.81 8.32, 20.16 14.36, 20.28 26.1 M19.26 27.17 C14.37 28.03, 5.98 24.34, 0.35 26.63 M19.75 26.23 C14.07 26.77, 6.75 27.14, -0.68 26.55 M-1.49 28.09 C1.68 17.96, 1.17 13.05, -0.67 0.47 M-0.11 27.21 C-0.61 19.14, 0.9 11.62, -0.65 -0.45" stroke="#000000" stroke-width="1" fill="none"></path></g><g stroke-linecap="round" transform="translate(917.5 420.1083445264459) rotate(0 10 13.125)"><path d="M0.35 0.38 C8.26 1.82, 17.08 -0.32, 19.97 0.75 M-0.68 0.3 C6.2 -0.32, 13.5 -0.9, 20.92 0.82 M19.33 0.47 C19.79 5.56, 21.41 10.28, 21.91 25.12 M19.35 -0.45 C19.29 8.72, 20.66 16.89, 20.54 25.69 M18.96 25.06 C15.08 27.5, 8.12 25.93, -1.94 24.75 M19.6 26.19 C15.05 25.6, 8.27 26.89, -0.38 26.9 M-0.11 26.16 C0.7 19.5, 1.63 14.51, 0.03 1.81 M0.39 26.16 C0.65 20.9, -0.3 14.58, -0.55 0.6" stroke="#000000" stroke-width="1" fill="none"></path></g><g stroke-linecap="round" transform="translate(925 452.6083445264459) rotate(0 10 13.125)"><path d="M-0.42 -1.94 C5.18 -0.37, 13.78 0.9, 19.19 -0.12 M0.56 -0.38 C7.87 -0.75, 14.82 0.68, 19.95 -0.05 M19.43 0.03 C21.66 7.74, 21.76 19.61, 20.79 26.07 M20.99 -0.55 C20.86 10.57, 19.87 19.69, 20.35 27.24 M20.07 27.87 C16.35 26.48, 12.49 27.78, 0.13 24.41 M19.63 25.43 C16.24 25.59, 10.88 27.19, 0.05 25.61 M0.2 27.29 C1.16 18.01, -0.78 7.85, -0.44 -1.16 M0.3 26.92 C-0.85 15.82, -0.29 7.08, -0.39 0.5" stroke="#000000" stroke-width="1" fill="none"></path></g><g stroke-linecap="round" transform="translate(925 496.3583445264459) rotate(0 10 13.125)"><path d="M1.98 -1.94 C4.18 -1.79, 10.52 1.55, 20.41 0.4 M-0.92 -0.72 C5.95 0.39, 12.83 -0.84, 20.8 -0.74 M18.71 1.42 C20.04 8.33, 20.43 16.85, 21.13 27.75 M19.42 0.63 C20.33 6, 20.44 14.3, 19.2 25.34 M21 27.28 C12.68 25.72, 7.18 25.31, -0.23 26.98 M20.35 26.4 C15.57 26.04, 9.8 25.74, -0.67 25.49 M-1.3 24.68 C-0.75 19.52, -1.84 12.12, -1.17 0.35 M-0.12 26.56 C0.09 17.9, -0.64 10.44, -0.56 0.24" stroke="#000000" stroke-width="1" fill="none"></path></g><g stroke-linecap="round" transform="translate(902.5 523.8583445264459) rotate(0 10 13.125)"><path d="M-1.79 -0.45 C3.45 -0.96, 10.21 0.62, 18.62 0.5 M0.19 -0.3 C5.93 -0.63, 13.12 -0.79, 20.02 -0.51 M19.11 1.19 C17.86 9.44, 18.66 15.8, 19.77 25.23 M19.96 -0.78 C19.19 6.09, 19.41 13.75, 20.02 26.93 M21.49 25.55 C13.86 28.04, 11.66 26.9, 1.23 26.44 M19.21 26 C14.38 25.97, 7 26.77, 0.22 25.25 M-0.01 24.75 C0.07 17.39, 0.15 7.3, 1.08 -1.26 M-0.13 27.13 C0.71 19.94, 0.73 12.68, -0.62 -0.48" stroke="#000000" stroke-width="1" fill="none"></path></g><g stroke-linecap="round" transform="translate(902.5 561.3583445264459) rotate(0 10 13.125)"><path d="M0.19 0.3 C6.71 -0.8, 12.99 -0.63, 21.36 -0.42 M-1 0.94 C5.72 -0.36, 10.37 -0.79, 20.11 0.74 M18.74 -0.96 C21.03 7.73, 19.96 18.26, 21.64 26.86 M19.52 -0.81 C19.91 9.71, 19.28 20.29, 20.7 25.77 M18.37 26.78 C13.88 25.97, 4.34 27.51, -0.48 25.31 M19.64 25.89 C12.65 25.38, 7.46 26.92, 0.73 25.42 M-1.73 24.37 C-1.01 21.42, 1.79 16.43, -1.1 0.2 M0 25.98 C-0.7 18.26, -0.62 9.37, 0.89 -0.26" stroke="#000000" stroke-width="1" fill="none"></path></g><g stroke-linecap="round" transform="translate(906.25 585.1083445264459) rotate(0 10 13.125)"><path d="M1.67 -0.68 C6.51 -1.02, 13.89 -0.07, 19.3 -1.27 M0.5 -0.71 C5.6 -0.72, 12.9 0.53, 19.93 -0.84 M20.53 1.07 C19.42 9, 19.21 17.8, 18.36 27.3 M19.12 -0.71 C20.16 8.92, 19.25 18.97, 20.37 27.05 M20.43 28.09 C12.94 26.28, 4.83 25.35, 0.9 25.49 M19.17 26.28 C14.05 25.83, 7.55 25.29, 0.78 26.33 M-1.34 26.22 C-2.1 16, -0.27 6.86, 0.21 0.31 M0.41 25.51 C0.28 15.12, -0.66 6.49, -0.64 0.97" stroke="#000000" stroke-width="1" fill="none"></path></g><g stroke-linecap="round" transform="translate(901.25 608.8583445264459) rotate(0 10 13.125)"><path d="M1.45 1.45 C2.7 -1.86, 7.29 -0.18, 18.27 -1.88 M0.66 -0.55 C4.9 0.05, 10.52 -0.03, 20 -0.27 M20.01 1.79 C19.6 5.01, 20.17 13.44, 19.27 25.39 M20.41 0.79 C19.7 4.82, 20.19 10.02, 19.35 26.22 M21.76 26.05 C16.46 27.1, 9.49 26.79, -1.89 24.87 M20.74 27.03 C13.7 26.17, 4.78 26.33, -0.59 25.35 M-1.6 24.83 C-2.09 18.18, 0.8 8.56, 1.72 1.07 M0.4 25.86 C0.34 19.59, -0.4 12.67, -0.25 -0.83" stroke="#000000" stroke-width="1" fill="none"></path></g><g stroke-linecap="round" transform="translate(893.75 636.3583445264459) rotate(0 10 13.125)"><path d="M0.15 0.82 C6.72 -1.16, 8.94 -0.19, 18.11 -1.3 M0.15 0.88 C5.84 0.47, 12.29 -0.76, 20.26 -0.94 M21.95 1.48 C21.73 7.95, 19.61 10.66, 19.76 25.06 M19.86 -0.8 C19.33 4.51, 20.11 11.47, 19.37 27.11 M18.64 27.05 C12.15 26.7, 6.04 25.23, -0.16 25.75 M19.56 27.14 C16.01 26.62, 11.08 26.17, -0.81 26.96 M-0.21 24.26 C-0.15 22.23, 1.87 14.52, -0.87 1.39 M0.1 25.33 C1.01 16.65, 0.35 6.66, -0.64 -0.4" stroke="#000000" stroke-width="1" fill="none"></path></g><g stroke-linecap="round" transform="translate(887.5 653.8583445264459) rotate(0 10 13.125)"><path d="M-1.36 -0.45 C4.39 -0.16, 11.11 1.8, 18.26 1.36 M0.28 0.05 C6.99 -0.11, 13.27 0.58, 19.51 0.74 M19.33 -0.68 C18.02 7.64, 20.28 16.64, 18.8 25.46 M19.04 0.1 C20.22 9.59, 19.62 17.4, 20.92 26.6 M21.32 27.84 C10.32 26.55, 3.71 27.37, 1 24.38 M20.76 25.31 C15.29 26.33, 8.41 26.66, -0.18 27.23 M1.26 26.24 C0.98 21.31, 0.54 13.44, -0.26 -1.85 M0.98 26.86 C0.19 15.97, -0.7 4.79, -0.94 -0.34" stroke="#000000" stroke-width="1" fill="none"></path></g><g stroke-linecap="round"><g transform="translate(765 162.60834452644585) rotate(0 -17.130686952895417 69.88460371191616)"><path d="M0.39 0.28 C-5.14 23.24, -28.35 115.83, -34.15 138.82 M-0.86 -0.63 C-6.39 23.07, -28.98 117.08, -34.65 140.39" stroke="#000000" stroke-width="1" fill="none"></path></g><g transform="translate(765 162.60834452644585) rotate(0 -17.130686952895417 69.88460371191616)"><path d="M-37.55 112 C-36.9 118.01, -37.16 122.36, -36.43 141 M-37.39 111.02 C-37.47 121.31, -34.76 132.89, -35.29 139.41" stroke="#000000" stroke-width="1" fill="none"></path></g><g transform="translate(765 162.60834452644585) rotate(0 -17.130686952895417 69.88460371191616)"><path d="M-17.6 116.82 C-21.34 121.84, -25.95 125.15, -36.43 141 M-17.44 115.83 C-25.27 124.15, -30.3 133.86, -35.29 139.41" stroke="#000000" stroke-width="1" fill="none"></path></g></g><g transform="translate(806.25 128.35834452644585) rotate(0 18 13)"><text x="0" y="21" font-family="Chinese, Segoe UI Emoji" font-size="20px" fill="#000000" text-anchor="start" style="white-space: pre;" direction="ltr">T管</text></g><g stroke-linecap="round"><g transform="translate(627.5 688.8583445264459) rotate(0 81.38593647629023 -54.81035299450161)"><path d="M-0.78 0.24 C26.37 -17.96, 136.23 -91.54, 163.55 -109.86 M1.01 -0.69 C28.04 -18.6, 136.2 -90.33, 163.16 -108.24" stroke="#000000" stroke-width="1" fill="none"></path></g><g transform="translate(627.5 688.8583445264459) rotate(0 81.38593647629023 -54.81035299450161)"><path d="M145.74 -82.35 C152.02 -91.44, 158.6 -101.18, 162.59 -109.37 M145.39 -84.1 C151.71 -93.44, 158.33 -103.73, 163.58 -108.32" stroke="#000000" stroke-width="1" fill="none"></path></g><g transform="translate(627.5 688.8583445264459) rotate(0 81.38593647629023 -54.81035299450161)"><path d="M134.39 -99.45 C144.58 -102.42, 155.17 -106.12, 162.59 -109.37 M134.04 -101.2 C145.01 -103.67, 156.13 -107.18, 163.58 -108.32" stroke="#000000" stroke-width="1" fill="none"></path></g></g><g transform="translate(570 675.8583445264459) rotate(0 20 13)"><text x="0" y="21" font-family="Chinese, Segoe UI Emoji" font-size="20px" fill="#000000" text-anchor="start" style="white-space: pre;" direction="ltr">终池</text></g><g stroke-linecap="round"><g transform="translate(1025 128.85834452644585) rotate(0 -18.981301116375334 100.88141035884618)"><path d="M-0.61 -1 C-7.23 32.91, -32.19 168.66, -38.87 202.76 M1.27 1.09 C-5.49 34.68, -32.65 167.32, -39.23 200.78" stroke="#000000" stroke-width="1" fill="none"></path></g><g transform="translate(1025 128.85834452644585) rotate(0 -18.981301116375334 100.88141035884618)"><path d="M-45.4 173 C-41.79 180.97, -38.71 193.23, -41.22 199.5 M-44.54 171.79 C-42.44 182.54, -40.73 194.37, -39.26 200.57" stroke="#000000" stroke-width="1" fill="none"></path></g><g transform="translate(1025 128.85834452644585) rotate(0 -18.981301116375334 100.88141035884618)"><path d="M-25.28 177.05 C-29.12 183.41, -33.51 194.17, -41.22 199.5 M-24.42 175.83 C-30.3 184.88, -36.59 195.1, -39.26 200.57" stroke="#000000" stroke-width="1" fill="none"></path></g></g><g transform="translate(995 85.85834452644585) rotate(0 16 13)"><text x="0" y="21" font-family="Chinese, Segoe UI Emoji" font-size="20px" fill="#000000" text-anchor="start" style="white-space: pre;" direction="ltr">L管</text></g><g transform="translate(1041.25 88.35834452644585) rotate(0 19 13)"><text x="0" y="21" font-family="Chinese, Segoe UI Emoji" font-size="20px" fill="#000000" text-anchor="start" style="white-space: pre;" direction="ltr">LSR</text></g><g stroke-linecap="round"><g transform="translate(828.75 296.3583445264459) rotate(0 -23.986464389986395 25.677430968484828)"><path d="M0.86 -0.87 C-7.19 7.53, -39.54 42.61, -47.75 51.31 M-0.15 1.28 C-8.43 9.71, -41.2 43.76, -48.83 52.23" stroke="#000000" stroke-width="1" fill="none"></path></g><g transform="translate(828.75 296.3583445264459) rotate(0 -23.986464389986395 25.677430968484828)"><path d="M-38.5 24.22 C-42.9 32.8, -46.9 45.27, -50.24 50.47 M-37.04 23.67 C-39.57 30.82, -41.82 35.39, -47.84 51.98" stroke="#000000" stroke-width="1" fill="none"></path></g><g transform="translate(828.75 296.3583445264459) rotate(0 -23.986464389986395 25.677430968484828)"><path d="M-23.53 38.25 C-33.23 42.08, -42.41 49.68, -50.24 50.47 M-22.06 37.71 C-27.67 41.94, -32.96 43.67, -47.84 51.98" stroke="#000000" stroke-width="1" fill="none"></path></g></g><g transform="translate(852.5 273.3583445264459) rotate(0 50 13)"><text x="0" y="21" font-family="Chinese, Segoe UI Emoji" font-size="20px" fill="#000000" text-anchor="start" style="white-space: pre;" direction="ltr">雷诺丁受体</text></g><g stroke-linecap="round"><g transform="translate(605 480.1083445264459) rotate(0 60.687618874013424 -55.749332498013985)"><path d="M-0.26 -0.24 C20.02 -18.82, 101.2 -92.76, 121.63 -111.25 M1.81 -1.42 C21.96 -19.8, 100.82 -91.64, 120.88 -109.72" stroke="#000000" stroke-width="1" fill="none"></path></g><g transform="translate(605 480.1083445264459) rotate(0 60.687618874013424 -55.749332498013985)"><path d="M106.49 -82.54 C111.02 -89.22, 115.22 -98.79, 122.4 -108.01 M106.89 -82.43 C109.67 -88.85, 112.8 -97, 120.2 -109.85" stroke="#000000" stroke-width="1" fill="none"></path></g><g transform="translate(605 480.1083445264459) rotate(0 60.687618874013424 -55.749332498013985)"><path d="M92.7 -97.75 C101.37 -99.86, 109.69 -104.89, 122.4 -108.01 M93.1 -97.63 C99.28 -100.35, 105.79 -104.78, 120.2 -109.85" stroke="#000000" stroke-width="1" fill="none"></path></g></g><g transform="translate(546.25 482.1083445264459) rotate(0 56 13)"><text x="0" y="21" font-family="Chinese, Segoe UI Emoji" font-size="20px" fill="#000000" text-anchor="start" style="white-space: pre;" direction="ltr">L型Ca²⁺通道</text></g><g stroke-linecap="round"><g transform="translate(1130 387.6083445264459) rotate(0 -82.7392178758978 12.226046301885503)"><path d="M0.16 -0.25 C-27.47 4.13, -137.97 21.73, -165.64 25.88 M-1.22 -1.42 C-28.46 2.66, -136.23 19.68, -163.26 24.21" stroke="#000000" stroke-width="1" fill="none"></path></g><g transform="translate(1130 387.6083445264459) rotate(0 -82.7392178758978 12.226046301885503)"><path d="M-137.48 8.52 C-143.77 12.77, -153.92 19, -161.56 25.06 M-136.89 10.38 C-146.8 14.86, -155.82 19.45, -162.87 23.56" stroke="#000000" stroke-width="1" fill="none"></path></g><g transform="translate(1130 387.6083445264459) rotate(0 -82.7392178758978 12.226046301885503)"><path d="M-134.2 28.78 C-141.43 26.76, -152.6 26.72, -161.56 25.06 M-133.61 30.64 C-144.49 27.96, -154.67 25.35, -162.87 23.56" stroke="#000000" stroke-width="1" fill="none"></path></g></g><g transform="translate(1142.5 375.8583445264459) rotate(0 20 13)"><text x="0" y="21" font-family="Chinese, Segoe UI Emoji" font-size="20px" fill="#000000" text-anchor="start" style="white-space: pre;" direction="ltr">钙泵</text></g></svg>