<svg id="kity_svg_6" xmlns="http://www.w3.org/2000/svg" xmlns:xlink="http://www.w3.org/1999/xlink" version="1.1" width="958" height="599" style="background: rgb(251, 251, 251); visibility: visible;" viewBox="0 0 958 599"><defs id="kity_defs_7"><linearGradient id="kity_linearGradient_17" x1="0" y1="0" x2="0" y2="1"><stop id="kity_stop_18" offset="0" stop-color="rgb(255, 255, 255)"></stop><stop id="kity_stop_19" offset="1" stop-color="rgb(204, 204, 204)"></stop></linearGradient><marker id="kity_marker_2" orient="auto" refX="6" refY="0" viewBox="-7 -7 14 14" markerWidth="7" markerHeight="7" markerUnits="userSpaceOnUse"><path id="kity_path_3" fill="rgb(115, 161, 191)" stroke="none" d="M6,0A6,6,0,1,1,-6,0A6,6,0,1,1,6,0"></path></marker></defs><g id="kity_g_8"><g id="minder1" text-rendering="optimize-speed"><g id="minder_connect_group1"><path id="kity_path_31" fill="none" stroke="rgb(115, 161, 191)" stroke-width="1" d="M100.49999772757292,303.5000039562583A163,169,0,0,1,263.4999977275729,134.5000039562583"></path><path id="kity_path_79" fill="none" stroke="rgb(115, 161, 191)" stroke-width="1" d="M100.49999772757292,303.5000039562583A159,20,0,0,1,259.4999977275729,283.5000039562583"></path><path id="kity_path_199" fill="none" stroke="rgb(115, 161, 191)" stroke-width="1" d="M100.49999772757292,303.5000039562583A150,154,0,0,0,250.49999772757292,457.5000039562583"></path><path id="kity_path_216" fill="none" stroke="rgb(115, 161, 191)" stroke-width="1" d="M582.4999977275729,96.5000039562583C597.4999977275729,96.5000039562583,597.4999977275729,44.5000039562583,612.4999977275729,44.5000039562583L667.4999977275729,44.5000039562583"></path><path id="kity_path_217" fill="none" stroke="rgb(115, 161, 191)" stroke-width="1" d="M582.4999977275729,96.5000039562583C597.4999977275729,96.5000039562583,597.4999977275729,96.5000039562583,612.4999977275729,96.5000039562583L692.4999977275729,96.5000039562583"></path><path id="kity_path_218" fill="none" stroke="rgb(115, 161, 191)" stroke-width="1" d="M582.4999977275729,96.5000039562583C597.4999977275729,96.5000039562583,597.4999977275729,148.5000039562583,612.4999977275729,148.5000039562583L679.4999977275729,148.5000039562583"></path><path id="kity_path_219" fill="none" stroke="rgb(115, 161, 191)" stroke-width="1" d="M474.4999977275729,134.5000039562583C489.4999977275729,134.5000039562583,489.4999977275729,96.5000039562583,504.4999977275729,96.5000039562583L582.4999977275729,96.5000039562583"></path><path id="kity_path_220" fill="none" stroke="rgb(115, 161, 191)" stroke-width="1" d="M474.4999977275729,134.5000039562583C489.4999977275729,134.5000039562583,489.4999977275729,200.5000039562583,504.4999977275729,200.5000039562583L619.4999977275729,200.5000039562583"></path><path id="kity_path_234" fill="none" stroke="rgb(115, 161, 191)" stroke-width="1" d="M413.4999977275729,283.5000039562583C457.4999977275729,283.5000039562583,457.4999977275729,255.5000039562583,501.4999977275729,255.5000039562583L641.4999977275729,255.5000039562583"></path><path id="kity_path_237" fill="none" stroke="rgb(115, 161, 191)" stroke-width="1" d="M413.4999977275729,283.5000039562583C486.4999977275729,283.5000039562583,486.4999977275729,321.5000039562583,559.4999977275729,321.5000039562583L638.4999977275729,321.5000039562583"></path><path id="kity_path_240" fill="none" stroke="rgb(115, 161, 191)" stroke-width="1" d="M413.4999977275729,283.5000039562583C467.9999977275729,283.5000039562583,467.9999977275729,420.5000039562583,522.4999977275729,420.5000039562583L637.4999977275729,420.5000039562583"></path><path id="kity_path_241" fill="none" stroke="rgb(115, 161, 191)" stroke-width="1" d="M641.4999977275729,255.5000039562583C688.4999977275729,255.5000039562583,688.4999977275729,181.5000039562583,735.4999977275729,181.5000039562583L827.4999977275729,181.5000039562583"></path><path id="kity_path_242" fill="none" stroke="rgb(115, 161, 191)" stroke-width="1" d="M641.4999977275729,255.5000039562583C682.9999977275729,255.5000039562583,682.9999977275729,246.5000039562583,724.4999977275729,246.5000039562583L917.4999977275729,246.5000039562583"></path><path id="kity_path_243" fill="none" stroke="rgb(115, 161, 191)" stroke-width="1" d="M641.4999977275729,255.5000039562583C663.4999977275729,255.5000039562583,663.4999977275729,291.5000039562583,685.4999977275729,291.5000039562583L938.4999977275729,291.5000039562583"></path><path id="kity_path_244" fill="none" stroke="rgb(115, 161, 191)" stroke-width="1" d="M638.4999977275729,321.5000039562583C699.9999977275729,321.5000039562583,699.9999977275729,332.5000039562583,761.4999977275729,332.5000039562583L853.4999977275729,332.5000039562583"></path><path id="kity_path_245" fill="none" stroke="rgb(115, 161, 191)" stroke-width="1" d="M638.4999977275729,321.5000039562583C708.4999977275729,321.5000039562583,708.4999977275729,397.5000039562583,778.4999977275729,397.5000039562583L870.4999977275729,397.5000039562583"></path><path id="kity_path_246" fill="none" stroke="rgb(115, 161, 191)" stroke-width="1" d="M637.4999977275729,420.5000039562583C700.4999977275729,420.5000039562583,700.4999977275729,433.5000039562583,763.4999977275729,433.5000039562583L842.4999977275729,433.5000039562583"></path><path id="kity_path_247" fill="none" stroke="rgb(115, 161, 191)" stroke-width="1" d="M637.4999977275729,420.5000039562583C702.9999977275729,420.5000039562583,702.9999977275729,494.5000039562583,768.4999977275729,494.5000039562583L847.4999977275729,494.5000039562583"></path><path id="kity_path_249" fill="none" stroke="rgb(115, 161, 191)" stroke-width="1" d="M100.49999772757292,303.5000039562583A150,262,0,0,0,250.49999772757292,565.5000039562583"></path></g><g id="minder_node1"><path id="node_outline1" fill="rgb(115, 161, 191)" stroke="rgb(115, 161, 191)" d="M25.499997727572918,283.5000039562583h150a5,5,0,0,1,5,5v30a5,5,0,0,1,-5,5h-150a5,5,0,0,1,-5,-5v-30a5,5,0,0,1,5,-5z" stroke-width="3"></path><g id="node_text1" fill="white"><text id="kity_text_22" text-rendering="inherit" font-size="16" dy=".8em" y="293.1000039204955" x="44.49999772757292">呼吸运动的调节</text></g></g><g id="kity_g_14" display="none"><path id="kity_path_15" fill="rgba(0, 92, 153, 0.5)" stroke="none" d="M734.4999977275729,248.5000039562583h183v15h-183z"></path><path id="kity_path_16" fill="none" stroke="rgb(0, 76, 128)" d="M734.4999977275729,248.5000039562583L917.4999977275729,248.5000039562583" stroke-width="1"></path></g><g id="minder_node2" opacity="1"><g id="node_expander1" style="cursor: pointer;"><path id="kity_path_36" fill="white" stroke="gray" d="M264.5000009164214,134.50000143796206A6,6,0,1,1,252.5000009164214,134.50000143796206A6,6,0,1,1,264.5000009164214,134.50000143796206"></path><path id="kity_path_37" fill="none" stroke="gray" d="M254.0000009164214,134.50000143796206L263.0000009164214,134.50000143796206"></path></g><path id="node_outline2" fill="rgb(238, 243, 246)" stroke="rgb(115, 161, 191)" d="M268.50000131875277,121.50000143796206h203a3,3,0,0,1,3,3v20a3,3,0,0,1,-3,3h-203a3,3,0,0,1,-3,-3v-20a3,3,0,0,1,3,-3z" stroke-width="1"></path><g id="node_text2" fill="black"><text id="kity_text_33" text-rendering="inherit" font-size="14" dy=".8em" y="125.40000140666962" x="285.50000131875277">呼吸中枢和呼吸节律的形成</text></g></g><g id="minder_node8" opacity="1"><g id="node_expander7" style="cursor: pointer;"><path id="kity_path_84" fill="white" stroke="gray" d="M260.50000085681677,283.5000036582351A6,6,0,1,1,248.50000085681677,283.5000036582351A6,6,0,1,1,260.50000085681677,283.5000036582351"></path><path id="kity_path_85" fill="none" stroke="gray" d="M250.00000085681677,283.5000036582351L259.00000085681677,283.5000036582351"></path></g><path id="node_outline8" fill="rgb(238, 243, 246)" stroke="rgb(115, 161, 191)" d="M264.5000012591481,270.5000036582351h146a3,3,0,0,1,3,3v20a3,3,0,0,1,-3,3h-146a3,3,0,0,1,-3,-3v-20a3,3,0,0,1,3,-3z" stroke-width="1"></path><g id="node_text8" fill="black"><text id="kity_text_81" text-rendering="inherit" font-size="14" dy=".8em" y="274.40000362694263" x="281.5000012591481">呼吸的反射性调节</text></g></g><g id="minder_node19" opacity="1"><g id="node_expander18" style="cursor: pointer;" display="none"><path id="kity_path_204" fill="white" stroke="gray" d="M502.5000044628978,457.5000062510371A6,6,0,1,1,490.5000044628978,457.5000062510371A6,6,0,1,1,502.5000044628978,457.5000062510371"></path><path id="kity_path_205" fill="none" stroke="gray"></path></g><path id="node_outline19" fill="rgb(238, 243, 246)" stroke="rgb(115, 161, 191)" d="M255.50000112503767,444.5000062510371h231a3,3,0,0,1,3,3v20a3,3,0,0,1,-3,3h-231a3,3,0,0,1,-3,-3v-20a3,3,0,0,1,3,-3z" stroke-width="1"></path><g id="node_text19" fill="black"><text id="kity_text_201" text-rendering="inherit" font-size="14" dy=".8em" y="448.4000062197447" x="272.50000112503767">特殊条件下的呼吸运动及其调节</text></g></g><g id="minder_node5"><g id="node_expander4" style="cursor: pointer;" display="none"><path id="kity_path_60" fill="white" stroke="gray" d="M622.5000062510371,30.49999988824129A6,6,0,1,1,610.5000062510371,30.49999988824129A6,6,0,1,1,622.5000062510371,30.49999988824129"></path><path id="kity_path_61" fill="none" stroke="gray"></path></g><path id="node_outline5" fill="none" stroke="none" d="M627.5000064894557,19.49999988824129h35a5,5,0,0,1,5,5v12a5,5,0,0,1,-5,5h-35a5,5,0,0,1,-5,-5v-12a5,5,0,0,1,5,-5z" stroke-width="3"></path><g id="node_text5" fill="black"><text id="kity_text_57" text-rendering="inherit" font-size="12" dy=".8em" y="22.6999998614192" x="632.5000064894557">脊髓</text></g></g><g id="minder_node6"><g id="node_expander5" style="cursor: pointer;" display="none"><path id="kity_path_68" fill="white" stroke="gray" d="M622.5000062510371,82.50000066310167A6,6,0,1,1,610.5000062510371,82.50000066310167A6,6,0,1,1,622.5000062510371,82.50000066310167"></path><path id="kity_path_69" fill="none" stroke="gray"></path></g><path id="node_outline6" fill="none" stroke="none" d="M627.5000064894557,71.50000066310167h60a5,5,0,0,1,5,5v12a5,5,0,0,1,-5,5h-60a5,5,0,0,1,-5,-5v-12a5,5,0,0,1,5,-5z" stroke-width="3"></path><g id="node_text6" fill="black"><text id="kity_text_65" text-rendering="inherit" font-size="12" dy=".8em" y="74.70000063627958" x="632.5000064894557">低位脑干</text></g></g><g id="minder_node7"><g id="node_expander6" style="cursor: pointer;" display="none"><path id="kity_path_76" fill="white" stroke="gray" d="M622.5000062510371,134.50000143796206A6,6,0,1,1,610.5000062510371,134.50000143796206A6,6,0,1,1,622.5000062510371,134.50000143796206"></path><path id="kity_path_77" fill="none" stroke="gray"></path></g><path id="node_outline7" fill="none" stroke="none" d="M627.5000064894557,123.50000143796206h47a5,5,0,0,1,5,5v12a5,5,0,0,1,-5,5h-47a5,5,0,0,1,-5,-5v-12a5,5,0,0,1,5,-5z" stroke-width="3"></path><g id="node_text7" fill="black"><text id="kity_text_73" text-rendering="inherit" font-size="12" dy=".8em" y="126.70000141113997" x="632.5000064894557">高位脑</text></g></g><g id="minder_node3"><g id="node_expander2" style="cursor: pointer;"><path id="kity_path_44" fill="white" stroke="gray" d="M514.5000046417117,82.50000066310167A6,6,0,1,1,502.5000046417117,82.50000066310167A6,6,0,1,1,514.5000046417117,82.50000066310167"></path><path id="kity_path_45" fill="none" stroke="gray" d="M504.0000046417117,82.50000066310167L513.0000046417117,82.50000066310167"></path></g><path id="node_outline3" fill="none" stroke="none" d="M519.5000048801303,71.50000066310167h58a5,5,0,0,1,5,5v12a5,5,0,0,1,-5,5h-58a5,5,0,0,1,-5,-5v-12a5,5,0,0,1,5,-5z" stroke-width="3"></path><g id="node_text3" fill="black"><text id="kity_text_41" text-rendering="inherit" font-size="12" dy=".8em" y="74.70000063627958" x="524.5000048801303">呼吸中枢</text></g></g><g id="minder_node4"><g id="node_expander3" style="cursor: pointer;" display="none"><path id="kity_path_52" fill="white" stroke="gray" d="M514.5000046417117,186.50000221282244A6,6,0,1,1,502.5000046417117,186.50000221282244A6,6,0,1,1,514.5000046417117,186.50000221282244"></path><path id="kity_path_53" fill="none" stroke="gray"></path></g><path id="node_outline4" fill="none" stroke="none" d="M519.5000048801303,175.50000221282244h95a5,5,0,0,1,5,5v12a5,5,0,0,1,-5,5h-95a5,5,0,0,1,-5,-5v-12a5,5,0,0,1,5,-5z" stroke-width="3"></path><g id="node_text4" fill="black"><text id="kity_text_49" text-rendering="inherit" font-size="12" dy=".8em" y="178.70000218600035" x="524.5000048801303">呼吸节律的产生</text></g></g><g id="minder_node9" opacity="1"><g id="node_expander8" style="cursor: pointer;"><path id="kity_path_92" fill="white" stroke="gray" d="M511.5000045970082,241.5000030323863A6,6,0,1,1,499.5000045970082,241.5000030323863A6,6,0,1,1,511.5000045970082,241.5000030323863"></path><path id="kity_path_93" fill="none" stroke="gray" d="M501.0000045970082,241.5000030323863L510.0000045970082,241.5000030323863"></path></g><path id="node_outline9" fill="none" stroke="none" d="M516.5000048354268,230.5000030323863h120a5,5,0,0,1,5,5v12a5,5,0,0,1,-5,5h-120a5,5,0,0,1,-5,-5v-12a5,5,0,0,1,5,-5z" stroke-width="3"></path><g id="node_text9" fill="black"><text id="kity_text_89" text-rendering="inherit" font-size="12" dy=".8em" y="233.7000030055642" x="521.5000048354268">化学感受性呼吸反射</text></g></g><g id="minder_node13" opacity="1"><g id="node_expander12" style="cursor: pointer;"><path id="kity_path_129" fill="white" stroke="gray" d="M569.5000054612756,307.50000401586294A6,6,0,1,1,557.5000054612756,307.50000401586294A6,6,0,1,1,569.5000054612756,307.50000401586294"></path><path id="kity_path_130" fill="none" stroke="gray" d="M559.0000054612756,307.50000401586294L568.0000054612756,307.50000401586294"></path></g><path id="node_outline13" fill="none" stroke="none" d="M574.5000056996942,296.50000401586294h59a5,5,0,0,1,5,5v12a5,5,0,0,1,-5,5h-59a5,5,0,0,1,-5,-5v-12a5,5,0,0,1,5,-5z" stroke-width="3"></path><g id="node_text13" fill="black"><text id="kity_text_126" text-rendering="inherit" font-size="12" dy=".8em" y="299.70000398904085" x="579.5000056996942">牵张反射</text></g></g><g id="minder_node16" opacity="1"><g id="node_expander15" style="cursor: pointer;"><path id="kity_path_153" fill="white" stroke="gray" d="M532.5000049099326,406.5000054910779A6,6,0,1,1,520.5000049099326,406.5000054910779A6,6,0,1,1,532.5000049099326,406.5000054910779"></path><path id="kity_path_154" fill="none" stroke="gray" d="M522.0000049099326,406.5000054910779L531.0000049099326,406.5000054910779"></path></g><path id="node_outline16" fill="none" stroke="none" d="M537.5000051483512,395.5000054910779h95a5,5,0,0,1,5,5v12a5,5,0,0,1,-5,5h-95a5,5,0,0,1,-5,-5v-12a5,5,0,0,1,5,-5z" stroke-width="3"></path><g id="node_text16" fill="black"><text id="kity_text_150" text-rendering="inherit" font-size="12" dy=".8em" y="398.7000054642558" x="542.5000051483512">防御性呼吸反射</text></g></g><g id="minder_node10" opacity="1"><g id="node_expander9" style="cursor: pointer;" display="none"><path id="kity_path_100" fill="white" stroke="gray" d="M745.50000808388,167.50000192970037A6,6,0,1,1,733.50000808388,167.50000192970037A6,6,0,1,1,745.50000808388,167.50000192970037"></path><path id="kity_path_101" fill="none" stroke="gray"></path></g><path id="node_outline10" fill="none" stroke="none" d="M750.5000083222985,156.50000192970037h72a5,5,0,0,1,5,5v12a5,5,0,0,1,-5,5h-72a5,5,0,0,1,-5,-5v-12a5,5,0,0,1,5,-5z" stroke-width="3"></path><g id="node_text10" fill="black"><text id="kity_text_97" text-rendering="inherit" font-size="12" dy=".8em" y="159.70000190287828" x="755.5000083222985">化学感受器</text></g></g><g id="minder_node11" opacity="1"><g id="node_expander10" style="cursor: pointer;" display="none"><path id="kity_path_112" fill="white" stroke="gray" d="M734.5000079199672,232.50000289827585A6,6,0,1,1,722.5000079199672,232.50000289827585A6,6,0,1,1,734.5000079199672,232.50000289827585"></path><path id="kity_path_113" fill="none" stroke="gray"></path></g><path id="node_outline11" fill="none" stroke="none" d="M739.5000081583858,221.50000289827585h173a5,5,0,0,1,5,5v12a5,5,0,0,1,-5,5h-173a5,5,0,0,1,-5,-5v-12a5,5,0,0,1,5,-5z" stroke-width="3"></path><g id="node_text11" fill="black"><text id="kity_text_109" text-rendering="inherit" font-size="12" dy=".8em" y="224.70000287145376" x="744.5000081583858">CO₂,H⁺和O₂对呼吸运动的调节</text></g></g><g id="minder_node12" opacity="1"><g id="node_expander11" style="cursor: pointer;" display="none"><path id="kity_path_121" fill="white" stroke="gray" d="M695.5000073388219,277.5000035688281A6,6,0,1,1,683.5000073388219,277.5000035688281A6,6,0,1,1,695.5000073388219,277.5000035688281"></path><path id="kity_path_122" fill="none" stroke="gray"></path></g><path id="node_outline12" fill="none" stroke="none" d="M700.5000075772405,266.5000035688281h233a5,5,0,0,1,5,5v12a5,5,0,0,1,-5,5h-233a5,5,0,0,1,-5,-5v-12a5,5,0,0,1,5,-5z" stroke-width="3"></path><g id="node_text12" fill="black"><text id="kity_text_118" text-rendering="inherit" font-size="12" dy=".8em" y="269.700003542006" x="705.5000075772405">CO₂,H⁺和O₂在呼吸运动调节中的相互作用</text></g></g><g id="minder_node14" opacity="1"><g id="node_expander13" style="cursor: pointer;" display="none"><path id="kity_path_137" fill="white" stroke="gray" d="M771.5000084713101,318.5000041797757A6,6,0,1,1,759.5000084713101,318.5000041797757A6,6,0,1,1,771.5000084713101,318.5000041797757"></path><path id="kity_path_138" fill="none" stroke="gray"></path></g><path id="node_outline14" fill="none" stroke="none" d="M776.5000087097287,307.5000041797757h72a5,5,0,0,1,5,5v12a5,5,0,0,1,-5,5h-72a5,5,0,0,1,-5,-5v-12a5,5,0,0,1,5,-5z" stroke-width="3"></path><g id="node_text14" fill="black"><text id="kity_text_134" text-rendering="inherit" font-size="12" dy=".8em" y="310.7000041529536" x="781.5000087097287">肺扩张反射</text></g></g><g id="minder_node15" opacity="1"><g id="node_expander14" style="cursor: pointer;" display="none"><path id="kity_path_145" fill="white" stroke="gray" d="M788.5000087246299,383.5000051483512A6,6,0,1,1,776.5000087246299,383.5000051483512A6,6,0,1,1,788.5000087246299,383.5000051483512"></path><path id="kity_path_146" fill="none" stroke="gray"></path></g><path id="node_outline15" fill="none" stroke="none" d="M793.5000089630485,372.5000051483512h72a5,5,0,0,1,5,5v12a5,5,0,0,1,-5,5h-72a5,5,0,0,1,-5,-5v-12a5,5,0,0,1,5,-5z" stroke-width="3"></path><g id="node_text15" fill="black"><text id="kity_text_142" text-rendering="inherit" font-size="12" dy=".8em" y="375.7000051215291" x="798.5000089630485">肺萎陷反射</text></g></g><g id="minder_node17" opacity="1"><g id="node_expander16" style="cursor: pointer;" display="none"><path id="kity_path_161" fill="white" stroke="gray" d="M773.5000085011125,419.500005684793A6,6,0,1,1,761.5000085011125,419.500005684793A6,6,0,1,1,773.5000085011125,419.500005684793"></path><path id="kity_path_162" fill="none" stroke="gray"></path></g><path id="node_outline17" fill="none" stroke="none" d="M778.500008739531,408.500005684793h59a5,5,0,0,1,5,5v12a5,5,0,0,1,-5,5h-59a5,5,0,0,1,-5,-5v-12a5,5,0,0,1,5,-5z" stroke-width="3"></path><g id="node_text17" fill="black"><text id="kity_text_158" text-rendering="inherit" font-size="12" dy=".8em" y="411.7000056579709" x="783.500008739531">咳嗽反射</text></g></g><g id="minder_node18" opacity="1"><g id="node_expander17" style="cursor: pointer;" display="none"><path id="kity_path_169" fill="white" stroke="gray" d="M778.5000085756183,480.5000065937638A6,6,0,1,1,766.5000085756183,480.5000065937638A6,6,0,1,1,778.5000085756183,480.5000065937638"></path><path id="kity_path_170" fill="none" stroke="gray"></path></g><path id="node_outline18" fill="none" stroke="none" d="M783.5000088140368,469.5000065937638h59a5,5,0,0,1,5,5v12a5,5,0,0,1,-5,5h-59a5,5,0,0,1,-5,-5v-12a5,5,0,0,1,5,-5z" stroke-width="3"></path><g id="node_text18" fill="black"><text id="kity_text_166" text-rendering="inherit" font-size="12" dy=".8em" y="472.70000656694174" x="788.5000088140368">喷嚏反射</text></g></g><g id="kity_g_12" display="none"><path id="kity_path_13" fill="none" stroke="rgb(66, 94, 112)" d="M983.4999977275729,280.5000039562583h72a5,5,0,0,1,5,5v12a5,5,0,0,1,-5,5h-72a5,5,0,0,1,-5,-5v-12a5,5,0,0,1,5,-5z" stroke-width="5"></path></g><g id="minder_node20" opacity="1"><g id="node_expander19" style="cursor: pointer;" display="none"><path id="kity_path_254" fill="white" stroke="gray" d="M530.5000048801303,565.5000078603625A6,6,0,1,1,518.5000048801303,565.5000078603625A6,6,0,1,1,530.5000048801303,565.5000078603625"></path><path id="kity_path_255" fill="none" stroke="gray"></path></g><path id="node_outline20" fill="rgb(238, 243, 246)" stroke="rgb(115, 161, 191)" d="M255.50000112503767,552.5000078603625h259a3,3,0,0,1,3,3v20a3,3,0,0,1,-3,3h-259a3,3,0,0,1,-3,-3v-20a3,3,0,0,1,3,-3z" stroke-width="1"></path><g id="node_text20" fill="black"><text id="kity_text_251" text-rendering="inherit" font-size="14" dy=".8em" y="556.4000078290701" x="272.50000112503767">临床监控呼吸状态的生理参数及意义</text></g></g></g></g></svg>