<svg id="kity_svg_6" xmlns="http://www.w3.org/2000/svg" xmlns:xlink="http://www.w3.org/1999/xlink" version="1.1" width="784" height="1000" style="background: rgb(251, 251, 251); visibility: visible;" viewBox="0 0 784 1000"><defs id="kity_defs_7"><linearGradient id="kity_linearGradient_17" x1="0" y1="0" x2="0" y2="1"><stop id="kity_stop_18" offset="0" stop-color="rgb(255, 255, 255)"></stop><stop id="kity_stop_19" offset="1" stop-color="rgb(204, 204, 204)"></stop></linearGradient><marker id="kity_marker_2" orient="auto" refX="6" refY="0" viewBox="-7 -7 14 14" markerWidth="7" markerHeight="7" markerUnits="userSpaceOnUse"><path id="kity_path_3" fill="rgb(115, 161, 191)" stroke="none" d="M6,0A6,6,0,1,1,-6,0A6,6,0,1,1,6,0"></path></marker></defs><g id="kity_g_8"><g id="minder1" text-rendering="geometricPrecision"><g id="minder_connect_group1"><path id="kity_path_31" fill="none" stroke="rgb(115, 161, 191)" stroke-width="1" d="M116.00000064820051,584.5000014081597A102.5,242,0,0,1,218.5000006482005,342.50000140815973"></path><path id="kity_path_191" fill="none" stroke="rgb(115, 161, 191)" stroke-width="1" d="M116.00000064820051,584.5000014081597A50.5,322,0,0,0,166.5000006482005,906.5000014081597"></path><path id="kity_path_198" fill="none" stroke="rgb(115, 161, 191)" stroke-width="1" d="M317.5000006482005,342.50000140815973C332.5000006482005,342.50000140815973,332.5000006482005,44.50000140815973,347.5000006482005,44.50000140815973L526.5000006482005,44.50000140815973"></path><path id="kity_path_199" fill="none" stroke="rgb(115, 161, 191)" stroke-width="1" d="M497.5000006482005,226.50000140815973C512.5000006482005,226.50000140815973,512.5000006482005,96.50000140815973,527.5000006482005,96.50000140815973L691.5000006482005,96.50000140815973"></path><path id="kity_path_200" fill="none" stroke="rgb(115, 161, 191)" stroke-width="1" d="M497.5000006482005,226.50000140815973C512.5000006482005,226.50000140815973,512.5000006482005,148.50000140815973,527.5000006482005,148.50000140815973L703.5000006482005,148.50000140815973"></path><path id="kity_path_201" fill="none" stroke="rgb(115, 161, 191)" stroke-width="1" d="M638.5000006482005,252.50000140815973C653.5000006482005,252.50000140815973,653.5000006482005,200.50000140815973,668.5000006482005,200.50000140815973L752.5000006482005,200.50000140815973"></path><path id="kity_path_202" fill="none" stroke="rgb(115, 161, 191)" stroke-width="1" d="M638.5000006482005,252.50000140815973C653.5000006482005,252.50000140815973,653.5000006482005,252.50000140815973,668.5000006482005,252.50000140815973L752.5000006482005,252.50000140815973"></path><path id="kity_path_203" fill="none" stroke="rgb(115, 161, 191)" stroke-width="1" d="M638.5000006482005,252.50000140815973C653.5000006482005,252.50000140815973,653.5000006482005,304.50000140815973,668.5000006482005,304.50000140815973L763.5000006482005,304.50000140815973"></path><path id="kity_path_204" fill="none" stroke="rgb(115, 161, 191)" stroke-width="1" d="M497.5000006482005,226.50000140815973C512.5000006482005,226.50000140815973,512.5000006482005,252.50000140815973,527.5000006482005,252.50000140815973L638.5000006482005,252.50000140815973"></path><path id="kity_path_205" fill="none" stroke="rgb(115, 161, 191)" stroke-width="1" d="M497.5000006482005,226.50000140815973C512.5000006482005,226.50000140815973,512.5000006482005,356.50000140815973,527.5000006482005,356.50000140815973L650.5000006482005,356.50000140815973"></path><path id="kity_path_206" fill="none" stroke="rgb(115, 161, 191)" stroke-width="1" d="M317.5000006482005,342.50000140815973C332.5000006482005,342.50000140815973,332.5000006482005,226.50000140815973,347.5000006482005,226.50000140815973L497.5000006482005,226.50000140815973"></path><path id="kity_path_207" fill="none" stroke="rgb(115, 161, 191)" stroke-width="1" d="M439.5000006482005,460.50000140815973C454.5000006482005,460.50000140815973,454.5000006482005,408.50000140815973,469.5000006482005,408.50000140815973L524.5000006482005,408.50000140815973"></path><path id="kity_path_208" fill="none" stroke="rgb(115, 161, 191)" stroke-width="1" d="M439.5000006482005,460.50000140815973C454.5000006482005,460.50000140815973,454.5000006482005,460.50000140815973,469.5000006482005,460.50000140815973L524.5000006482005,460.50000140815973"></path><path id="kity_path_209" fill="none" stroke="rgb(115, 161, 191)" stroke-width="1" d="M439.5000006482005,460.50000140815973C454.5000006482005,460.50000140815973,454.5000006482005,512.5000014081597,469.5000006482005,512.5000014081597L524.5000006482005,512.5000014081597"></path><path id="kity_path_210" fill="none" stroke="rgb(115, 161, 191)" stroke-width="1" d="M317.5000006482005,342.50000140815973C332.5000006482005,342.50000140815973,332.5000006482005,460.50000140815973,347.5000006482005,460.50000140815973L439.5000006482005,460.50000140815973"></path><path id="kity_path_211" fill="none" stroke="rgb(115, 161, 191)" stroke-width="1" d="M486.5000006482005,668.5000014081597C501.5000006482005,668.5000014081597,501.5000006482005,564.5000014081597,516.5000006482005,564.5000014081597L687.5000006482005,564.5000014081597"></path><path id="kity_path_212" fill="none" stroke="rgb(115, 161, 191)" stroke-width="1" d="M486.5000006482005,668.5000014081597C501.5000006482005,668.5000014081597,501.5000006482005,616.5000014081597,516.5000006482005,616.5000014081597L571.5000006482005,616.5000014081597"></path><path id="kity_path_213" fill="none" stroke="rgb(115, 161, 191)" stroke-width="1" d="M486.5000006482005,668.5000014081597C501.5000006482005,668.5000014081597,501.5000006482005,668.5000014081597,516.5000006482005,668.5000014081597L594.5000006482005,668.5000014081597"></path><path id="kity_path_214" fill="none" stroke="rgb(115, 161, 191)" stroke-width="1" d="M486.5000006482005,668.5000014081597C501.5000006482005,668.5000014081597,501.5000006482005,720.5000014081597,516.5000006482005,720.5000014081597L564.5000006482005,720.5000014081597"></path><path id="kity_path_215" fill="none" stroke="rgb(115, 161, 191)" stroke-width="1" d="M486.5000006482005,668.5000014081597C501.5000006482005,668.5000014081597,501.5000006482005,772.5000014081597,516.5000006482005,772.5000014081597L595.5000006482005,772.5000014081597"></path><path id="kity_path_216" fill="none" stroke="rgb(115, 161, 191)" stroke-width="1" d="M317.5000006482005,342.50000140815973C332.5000006482005,342.50000140815973,332.5000006482005,668.5000014081597,347.5000006482005,668.5000014081597L486.5000006482005,668.5000014081597"></path><path id="kity_path_242" fill="none" stroke="rgb(115, 161, 191)" stroke-width="1" d="M307.5000006482005,906.5000014081597C328.5000006482005,906.5000014081597,328.5000006482005,855.5000014081597,349.5000006482005,855.5000014081597L463.5000006482005,855.5000014081597"></path><path id="kity_path_251" fill="none" stroke="rgb(115, 161, 191)" stroke-width="1" d="M463.5000006482005,855.5000014081597C503.5000006482005,855.5000014081597,503.5000006482005,833.5000014081597,543.5000006482005,833.5000014081597L623.5000006482005,833.5000014081597"></path><path id="kity_path_252" fill="none" stroke="rgb(115, 161, 191)" stroke-width="1" d="M463.5000006482005,855.5000014081597C491.0000006482005,855.5000014081597,491.0000006482005,876.5000014081597,518.5000006482005,876.5000014081597L645.5000006482005,876.5000014081597"></path><path id="kity_path_254" fill="none" stroke="rgb(115, 161, 191)" stroke-width="1" d="M307.5000006482005,906.5000014081597C318.0000006482005,906.5000014081597,318.0000006482005,916.5000014081597,328.5000006482005,916.5000014081597L442.5000006482005,916.5000014081597"></path><path id="kity_path_262" fill="none" stroke="rgb(115, 161, 191)" stroke-width="1" d="M307.5000006482005,906.5000014081597C311.0000006482005,906.5000014081597,311.0000006482005,979.5000014081597,314.5000006482005,979.5000014081597L453.5000006482005,979.5000014081597"></path></g><g id="minder_node1"><path id="node_outline1" fill="rgb(115, 161, 191)" stroke="rgb(115, 161, 191)" d="M24.500000648200512,564.5000014081597h183a5,5,0,0,1,5,5v30a5,5,0,0,1,-5,5h-183a5,5,0,0,1,-5,-5v-30a5,5,0,0,1,5,-5z" stroke-width="3"></path><g id="node_text1" fill="white"><text id="kity_text_22" text-rendering="inherit" font-size="16" dy=".8em" y="574.100001372397" x="43.50000064820051">气体在血液中的运输</text></g></g><g id="kity_g_14" display="none"><path id="kity_path_15" fill="rgba(0, 92, 153, 0.5)" stroke="none" d="M58.50000064820051,948.5000014081597h70v15h-70z"></path><path id="kity_path_16" fill="none" stroke="rgb(0, 76, 128)" d="M58.50000064820051,948.5000014081597L128.5000006482005,948.5000014081597" stroke-width="1"></path></g><g id="minder_node2" opacity="1"><g id="node_expander11" style="cursor: pointer;"><path id="kity_path_116" fill="white" stroke="gray" d="M219.50000318139791,342.4999978020787A6,6,0,1,1,207.50000318139791,342.4999978020787A6,6,0,1,1,219.50000318139791,342.4999978020787"></path><path id="kity_path_117" fill="none" stroke="gray" d="M209.00000318139791,342.4999978020787L218.00000318139791,342.4999978020787"></path></g><path id="node_outline12" fill="rgb(238, 243, 246)" stroke="rgb(115, 161, 191)" d="M223.50000358372927,329.4999978020787h91a3,3,0,0,1,3,3v20a3,3,0,0,1,-3,3h-91a3,3,0,0,1,-3,-3v-20a3,3,0,0,1,3,-3z" stroke-width="1"></path><g id="node_text12" fill="black"><text id="kity_text_73" text-rendering="inherit" font-size="14" dy=".8em" y="333.3999977707863" x="240.50000358372927">氧的运输</text></g></g><g id="minder_node22" opacity="1"><g id="node_expander21" style="cursor: pointer;"><path id="kity_path_196" fill="white" stroke="gray" d="M320.5000046864152,906.5000062063336A6,6,0,1,1,308.5000046864152,906.5000062063336A6,6,0,1,1,320.5000046864152,906.5000062063336"></path><path id="kity_path_197" fill="none" stroke="gray" d="M310.0000046864152,906.5000062063336L319.0000046864152,906.5000062063336"></path></g><path id="node_outline22" fill="rgb(238, 243, 246)" stroke="rgb(115, 161, 191)" d="M171.50000280886889,893.5000062063336h133a3,3,0,0,1,3,3v20a3,3,0,0,1,-3,3h-133a3,3,0,0,1,-3,-3v-20a3,3,0,0,1,3,-3z" stroke-width="1"></path><g id="node_text22" fill="black"><text id="kity_text_193" text-rendering="inherit" font-size="14" dy=".8em" y="897.4000061750412" x="188.50000280886889">二氧化碳的运输</text></g></g><g id="minder_node3"><g id="node_expander1" style="cursor: pointer;" display="none"><path id="kity_path_86" fill="white" stroke="gray" d="M357.50000523775816,30.49999315291643A6,6,0,1,1,345.50000523775816,30.49999315291643A6,6,0,1,1,357.50000523775816,30.49999315291643"></path><path id="kity_path_87" fill="none" stroke="gray"></path></g><path id="node_outline2" fill="none" stroke="none" d="M362.50000547617674,19.49999315291643h159a5,5,0,0,1,5,5v12a5,5,0,0,1,-5,5h-159a5,5,0,0,1,-5,-5v-12a5,5,0,0,1,5,-5z"></path><g id="node_text2" fill="black"><text id="kity_text_53" text-rendering="inherit" font-size="12" dy=".8em" y="22.69999312609434" x="367.50000547617674">[[Hb]](血红蛋白)的分子结构</text></g></g><g id="minder_node5"><g id="node_expander2" style="cursor: pointer;" display="none"><path id="kity_path_89" fill="white" stroke="gray" d="M537.5000079199672,82.49999392777681A6,6,0,1,1,525.5000079199672,82.49999392777681A6,6,0,1,1,537.5000079199672,82.49999392777681"></path><path id="kity_path_90" fill="none" stroke="gray"></path></g><path id="node_outline3" fill="none" stroke="none" d="M542.5000081583858,71.49999392777681h144a5,5,0,0,1,5,5v12a5,5,0,0,1,-5,5h-144a5,5,0,0,1,-5,-5v-12a5,5,0,0,1,5,-5z"></path><g id="node_text3" fill="black"><text id="kity_text_55" text-rendering="inherit" font-size="12" dy=".8em" y="74.69999390095472" x="547.5000081583858">结合反应迅速可逆不需酶</text></g></g><g id="minder_node6"><g id="node_expander3" style="cursor: pointer;" display="none"><path id="kity_path_92" fill="white" stroke="gray" d="M537.5000079199672,134.4999947026372A6,6,0,1,1,525.5000079199672,134.4999947026372A6,6,0,1,1,537.5000079199672,134.4999947026372"></path><path id="kity_path_93" fill="none" stroke="gray"></path></g><path id="node_outline4" fill="none" stroke="none" d="M542.5000081583858,123.4999947026372h156a5,5,0,0,1,5,5v12a5,5,0,0,1,-5,5h-156a5,5,0,0,1,-5,-5v-12a5,5,0,0,1,5,-5z"></path><g id="node_text4" fill="black"><text id="kity_text_57" text-rendering="inherit" font-size="12" dy=".8em" y="126.6999946758151" x="547.5000081583858">结合反应是氧合而不是氧化</text></g></g><g id="minder_node8"><g id="node_expander4" style="cursor: pointer;" display="none"><path id="kity_path_95" fill="white" stroke="gray" d="M678.5000100210309,186.49999547749758A6,6,0,1,1,666.5000100210309,186.49999547749758A6,6,0,1,1,678.5000100210309,186.49999547749758"></path><path id="kity_path_96" fill="none" stroke="gray"></path></g><path id="node_outline5" fill="none" stroke="none" d="M683.5000102594495,175.49999547749758h64a5,5,0,0,1,5,5v12a5,5,0,0,1,-5,5h-64a5,5,0,0,1,-5,-5v-12a5,5,0,0,1,5,-5z"></path><g id="node_text5" fill="black"><text id="kity_text_59" text-rendering="inherit" font-size="12" dy=".8em" y="178.6999954506755" x="688.5000102594495">Hb氧容量</text></g></g><g id="minder_node9"><g id="node_expander5" style="cursor: pointer;" display="none"><path id="kity_path_98" fill="white" stroke="gray" d="M678.5000100210309,238.49999625235796A6,6,0,1,1,666.5000100210309,238.49999625235796A6,6,0,1,1,678.5000100210309,238.49999625235796"></path><path id="kity_path_99" fill="none" stroke="gray"></path></g><path id="node_outline6" fill="none" stroke="none" d="M683.5000102594495,227.49999625235796h64a5,5,0,0,1,5,5v12a5,5,0,0,1,-5,5h-64a5,5,0,0,1,-5,-5v-12a5,5,0,0,1,5,-5z"></path><g id="node_text6" fill="black"><text id="kity_text_61" text-rendering="inherit" font-size="12" dy=".8em" y="230.69999622553587" x="688.5000102594495">Hb氧含量</text></g></g><g id="minder_node10"><g id="node_expander6" style="cursor: pointer;" display="none"><path id="kity_path_101" fill="white" stroke="gray" d="M678.5000100210309,290.49999702721834A6,6,0,1,1,666.5000100210309,290.49999702721834A6,6,0,1,1,678.5000100210309,290.49999702721834"></path><path id="kity_path_102" fill="none" stroke="gray"></path></g><path id="node_outline7" fill="none" stroke="none" d="M683.5000102594495,279.49999702721834h75a5,5,0,0,1,5,5v12a5,5,0,0,1,-5,5h-75a5,5,0,0,1,-5,-5v-12a5,5,0,0,1,5,-5z"></path><g id="node_text7" fill="black"><text id="kity_text_63" text-rendering="inherit" font-size="12" dy=".8em" y="282.69999700039625" x="688.5000102594495">Hb氧饱合度</text></g></g><g id="minder_node7"><g id="node_expander7" style="cursor: pointer;"><path id="kity_path_104" fill="white" stroke="gray" d="M537.5000079199672,238.49999625235796A6,6,0,1,1,525.5000079199672,238.49999625235796A6,6,0,1,1,537.5000079199672,238.49999625235796"></path><path id="kity_path_105" fill="none" stroke="gray" d="M527.0000079199672,238.49999625235796L536.0000079199672,238.49999625235796"></path></g><path id="node_outline8" fill="none" stroke="none" d="M542.5000081583858,227.49999625235796h91a5,5,0,0,1,5,5v12a5,5,0,0,1,-5,5h-91a5,5,0,0,1,-5,-5v-12a5,5,0,0,1,5,-5z"></path><g id="node_text8" fill="black"><text id="kity_text_65" text-rendering="inherit" font-size="12" dy=".8em" y="230.69999622553587" x="547.5000081583858">Hb结合O₂的量</text></g></g><g id="minder_node11"><g id="node_expander8" style="cursor: pointer;" display="none"><path id="kity_path_107" fill="white" stroke="gray" d="M537.5000079199672,342.4999978020787A6,6,0,1,1,525.5000079199672,342.4999978020787A6,6,0,1,1,537.5000079199672,342.4999978020787"></path><path id="kity_path_108" fill="none" stroke="gray"></path></g><path id="node_outline9" fill="none" stroke="none" d="M542.5000081583858,331.4999978020787h103a5,5,0,0,1,5,5v12a5,5,0,0,1,-5,5h-103a5,5,0,0,1,-5,-5v-12a5,5,0,0,1,5,-5z"></path><g id="node_text9" fill="black"><text id="kity_text_67" text-rendering="inherit" font-size="12" dy=".8em" y="334.69999777525663" x="547.5000081583858">氧解离曲线呈S形</text></g></g><g id="minder_node4"><g id="node_expander9" style="cursor: pointer;"><path id="kity_path_110" fill="white" stroke="gray" d="M357.50000523775816,212.49999586492777A6,6,0,1,1,345.50000523775816,212.49999586492777A6,6,0,1,1,357.50000523775816,212.49999586492777"></path><path id="kity_path_111" fill="none" stroke="gray" d="M347.00000523775816,212.49999586492777L356.00000523775816,212.49999586492777"></path></g><path id="node_outline10" fill="none" stroke="none" d="M362.50000547617674,201.49999586492777h130a5,5,0,0,1,5,5v12a5,5,0,0,1,-5,5h-130a5,5,0,0,1,-5,-5v-12a5,5,0,0,1,5,-5z"></path><g id="node_text10" fill="black"><text id="kity_text_69" text-rendering="inherit" font-size="12" dy=".8em" y="204.69999583810568" x="367.50000547617674">[[Hb]]与O₂结合的特征</text></g></g><g id="minder_node13"><g id="node_expander12" style="cursor: pointer;" display="none"><path id="kity_path_124" fill="white" stroke="gray" d="M479.5000070556998,394.4999985769391A6,6,0,1,1,467.5000070556998,394.4999985769391A6,6,0,1,1,479.5000070556998,394.4999985769391"></path><path id="kity_path_125" fill="none" stroke="gray"></path></g><path id="node_outline13" fill="none" stroke="none" d="M484.5000072941184,383.4999985769391h35a5,5,0,0,1,5,5v12a5,5,0,0,1,-5,5h-35a5,5,0,0,1,-5,-5v-12a5,5,0,0,1,5,-5z" stroke-width="3"></path><g id="node_text13" fill="black"><text id="kity_text_121" text-rendering="inherit" font-size="12" dy=".8em" y="386.699998550117" x="489.5000072941184">上段</text></g></g><g id="minder_node14"><g id="node_expander13" style="cursor: pointer;" display="none"><path id="kity_path_132" fill="white" stroke="gray" d="M479.5000070556998,446.4999993517995A6,6,0,1,1,467.5000070556998,446.4999993517995A6,6,0,1,1,479.5000070556998,446.4999993517995"></path><path id="kity_path_133" fill="none" stroke="gray"></path></g><path id="node_outline14" fill="none" stroke="none" d="M484.5000072941184,435.4999993517995h35a5,5,0,0,1,5,5v12a5,5,0,0,1,-5,5h-35a5,5,0,0,1,-5,-5v-12a5,5,0,0,1,5,-5z" stroke-width="3"></path><g id="node_text14" fill="black"><text id="kity_text_129" text-rendering="inherit" font-size="12" dy=".8em" y="438.6999993249774" x="489.5000072941184">中段</text></g></g><g id="minder_node15"><g id="node_expander14" style="cursor: pointer;" display="none"><path id="kity_path_140" fill="white" stroke="gray" d="M479.5000070556998,498.50000012665987A6,6,0,1,1,467.5000070556998,498.50000012665987A6,6,0,1,1,479.5000070556998,498.50000012665987"></path><path id="kity_path_141" fill="none" stroke="gray"></path></g><path id="node_outline15" fill="none" stroke="none" d="M484.5000072941184,487.50000012665987h35a5,5,0,0,1,5,5v12a5,5,0,0,1,-5,5h-35a5,5,0,0,1,-5,-5v-12a5,5,0,0,1,5,-5z" stroke-width="3"></path><g id="node_text15" fill="black"><text id="kity_text_137" text-rendering="inherit" font-size="12" dy=".8em" y="490.7000000998378" x="489.5000072941184">下段</text></g></g><g id="minder_node12"><g id="node_expander10" style="cursor: pointer;"><path id="kity_path_113" fill="white" stroke="gray" d="M357.50000523775816,446.4999993517995A6,6,0,1,1,345.50000523775816,446.4999993517995A6,6,0,1,1,357.50000523775816,446.4999993517995"></path><path id="kity_path_114" fill="none" stroke="gray" d="M347.00000523775816,446.4999993517995L356.00000523775816,446.4999993517995"></path></g><path id="node_outline11" fill="none" stroke="none" d="M362.50000547617674,435.4999993517995h72a5,5,0,0,1,5,5v12a5,5,0,0,1,-5,5h-72a5,5,0,0,1,-5,-5v-12a5,5,0,0,1,5,-5z" stroke-width="3"></path><g id="node_text11" fill="black"><text id="kity_text_71" text-rendering="inherit" font-size="12" dy=".8em" y="438.6999993249774" x="367.50000547617674">氧解离曲线</text></g></g><g id="minder_node17"><g id="node_expander16" style="cursor: pointer;" display="none"><path id="kity_path_156" fill="white" stroke="gray" d="M526.5000077560544,550.5000009015203A6,6,0,1,1,514.5000077560544,550.5000009015203A6,6,0,1,1,526.5000077560544,550.5000009015203"></path><path id="kity_path_157" fill="none" stroke="gray"></path></g><path id="node_outline17" fill="none" stroke="none" d="M531.500007994473,539.5000009015203h151a5,5,0,0,1,5,5v12a5,5,0,0,1,-5,5h-151a5,5,0,0,1,-5,-5v-12a5,5,0,0,1,5,-5z" stroke-width="3"></path><g id="node_text17" fill="black"><text id="kity_text_153" text-rendering="inherit" font-size="12" dy=".8em" y="542.7000008746982" x="536.500007994473">血液对pH和PCOO₂的影响</text></g></g><g id="minder_node18"><g id="node_expander17" style="cursor: pointer;" display="none"><path id="kity_path_164" fill="white" stroke="gray" d="M526.5000077560544,602.5000016763806A6,6,0,1,1,514.5000077560544,602.5000016763806A6,6,0,1,1,526.5000077560544,602.5000016763806"></path><path id="kity_path_165" fill="none" stroke="gray"></path></g><path id="node_outline18" fill="none" stroke="none" d="M531.500007994473,591.5000016763806h35a5,5,0,0,1,5,5v12a5,5,0,0,1,-5,5h-35a5,5,0,0,1,-5,-5v-12a5,5,0,0,1,5,-5z" stroke-width="3"></path><g id="node_text18" fill="black"><text id="kity_text_161" text-rendering="inherit" font-size="12" dy=".8em" y="594.7000016495585" x="536.500007994473">温度</text></g></g><g id="minder_node19"><g id="node_expander18" style="cursor: pointer;" display="none"><path id="kity_path_172" fill="white" stroke="gray" d="M526.5000077560544,654.500002451241A6,6,0,1,1,514.5000077560544,654.500002451241A6,6,0,1,1,526.5000077560544,654.500002451241"></path><path id="kity_path_173" fill="none" stroke="gray"></path></g><path id="node_outline19" fill="none" stroke="none" d="M531.500007994473,643.500002451241h58a5,5,0,0,1,5,5v12a5,5,0,0,1,-5,5h-58a5,5,0,0,1,-5,-5v-12a5,5,0,0,1,5,-5z" stroke-width="3"></path><g id="node_text19" fill="black"><text id="kity_text_169" text-rendering="inherit" font-size="12" dy=".8em" y="646.7000024244189" x="536.500007994473">2,3-DPG</text></g></g><g id="minder_node20"><g id="node_expander19" style="cursor: pointer;" display="none"><path id="kity_path_180" fill="white" stroke="gray" d="M526.5000077560544,706.5000032261014A6,6,0,1,1,514.5000077560544,706.5000032261014A6,6,0,1,1,526.5000077560544,706.5000032261014"></path><path id="kity_path_181" fill="none" stroke="gray"></path></g><path id="node_outline20" fill="none" stroke="none" d="M531.500007994473,695.5000032261014h28a5,5,0,0,1,5,5v12a5,5,0,0,1,-5,5h-28a5,5,0,0,1,-5,-5v-12a5,5,0,0,1,5,-5z" stroke-width="3"></path><g id="node_text20" fill="black"><text id="kity_text_177" text-rendering="inherit" font-size="12" dy=".8em" y="698.7000031992793" x="536.500007994473">CO</text></g></g><g id="minder_node21"><g id="node_expander20" style="cursor: pointer;" display="none"><path id="kity_path_188" fill="white" stroke="gray" d="M526.5000077560544,758.5000040009618A6,6,0,1,1,514.5000077560544,758.5000040009618A6,6,0,1,1,526.5000077560544,758.5000040009618"></path><path id="kity_path_189" fill="none" stroke="gray"></path></g><path id="node_outline21" fill="none" stroke="none" d="M531.500007994473,747.5000040009618h59a5,5,0,0,1,5,5v12a5,5,0,0,1,-5,5h-59a5,5,0,0,1,-5,-5v-12a5,5,0,0,1,5,-5z" stroke-width="3"></path><g id="node_text21" fill="black"><text id="kity_text_185" text-rendering="inherit" font-size="12" dy=".8em" y="750.7000039741397" x="536.500007994473">其他因素</text></g></g><g id="minder_node16"><g id="node_expander15" style="cursor: pointer;"><path id="kity_path_148" fill="white" stroke="gray" d="M357.50000523775816,654.500002451241A6,6,0,1,1,345.50000523775816,654.500002451241A6,6,0,1,1,357.50000523775816,654.500002451241"></path><path id="kity_path_149" fill="none" stroke="gray" d="M347.00000523775816,654.500002451241L356.00000523775816,654.500002451241"></path></g><path id="node_outline16" fill="none" stroke="none" d="M362.50000547617674,643.500002451241h119a5,5,0,0,1,5,5v12a5,5,0,0,1,-5,5h-119a5,5,0,0,1,-5,-5v-12a5,5,0,0,1,5,-5z" stroke-width="3"></path><g id="node_text16" fill="black"><text id="kity_text_145" text-rendering="inherit" font-size="12" dy=".8em" y="646.7000024244189" x="367.50000547617674">影响解离曲线的因素</text></g></g><g id="minder_node26" opacity="1"><g id="node_expander25" style="cursor: pointer;"><path id="kity_path_247" fill="white" stroke="gray" d="M475.5000069960952,841.5000052377582A6,6,0,1,1,463.5000069960952,841.5000052377582A6,6,0,1,1,475.5000069960952,841.5000052377582"></path><path id="kity_path_248" fill="none" stroke="gray" d="M465.0000069960952,841.5000052377582L474.0000069960952,841.5000052377582"></path></g><path id="node_outline26" fill="none" stroke="none" d="M364.50000550597906,830.5000052377582h94a5,5,0,0,1,5,5v12a5,5,0,0,1,-5,5h-94a5,5,0,0,1,-5,-5v-12a5,5,0,0,1,5,-5z" stroke-width="3"></path><g id="node_text26" fill="black"><text id="kity_text_244" text-rendering="inherit" font-size="12" dy=".8em" y="833.7000052109361" x="369.50000550597906">CO₂的运输形式</text></g></g><g id="kity_g_12" display="none"><path id="kity_path_13" fill="none" stroke="rgb(66, 94, 112)" d="M63.50000064820051,921.5000014081597h60a5,5,0,0,1,5,5v12a5,5,0,0,1,-5,5h-60a5,5,0,0,1,-5,-5v-12a5,5,0,0,1,5,-5z" stroke-width="5"></path></g><g id="minder_node23" opacity="1"><g id="node_expander22" style="cursor: pointer;" display="none"><path id="kity_path_223" fill="white" stroke="gray" d="M635.500009380281,819.5000049099326A6,6,0,1,1,623.500009380281,819.5000049099326A6,6,0,1,1,635.500009380281,819.5000049099326"></path><path id="kity_path_224" fill="none" stroke="gray"></path></g><path id="node_outline23" fill="none" stroke="none" d="M558.5000083968043,808.5000049099326h60a5,5,0,0,1,5,5v12a5,5,0,0,1,-5,5h-60a5,5,0,0,1,-5,-5v-12a5,5,0,0,1,5,-5z" stroke-width="3"></path><g id="node_text23" fill="black"><text id="kity_text_220" text-rendering="inherit" font-size="12" dy=".8em" y="811.7000048831105" x="563.5000083968043">碳酸氢盐</text></g></g><g id="minder_node24" opacity="1"><g id="node_expander23" style="cursor: pointer;" display="none"><path id="kity_path_231" fill="white" stroke="gray" d="M657.5000097081065,862.5000055506825A6,6,0,1,1,645.5000097081065,862.5000055506825A6,6,0,1,1,657.5000097081065,862.5000055506825"></path><path id="kity_path_232" fill="none" stroke="gray"></path></g><path id="node_outline24" fill="none" stroke="none" d="M533.5000080242753,851.5000055506825h107a5,5,0,0,1,5,5v12a5,5,0,0,1,-5,5h-107a5,5,0,0,1,-5,-5v-12a5,5,0,0,1,5,-5z" stroke-width="3"></path><g id="node_text24" fill="black"><text id="kity_text_228" text-rendering="inherit" font-size="12" dy=".8em" y="854.7000055238605" x="538.5000080242753">氨基甲酰血红蛋白</text></g></g><g id="minder_node27" opacity="1"><g id="node_expander26" style="cursor: pointer;" display="none"><path id="kity_path_259" fill="white" stroke="gray" d="M454.5000066831708,902.500006146729A6,6,0,1,1,442.5000066831708,902.500006146729A6,6,0,1,1,454.5000066831708,902.500006146729"></path><path id="kity_path_260" fill="none" stroke="gray"></path></g><path id="node_outline27" fill="none" stroke="none" d="M343.5000051930547,891.500006146729h94a5,5,0,0,1,5,5v12a5,5,0,0,1,-5,5h-94a5,5,0,0,1,-5,-5v-12a5,5,0,0,1,5,-5z" stroke-width="3"></path><g id="node_text27" fill="black"><text id="kity_text_256" text-rendering="inherit" font-size="12" dy=".8em" y="894.7000061199069" x="348.5000051930547">CO₂的解离曲线</text></g></g><g id="minder_node28" opacity="1"><g id="node_expander27" style="cursor: pointer;" display="none"><path id="kity_path_267" fill="white" stroke="gray" d="M465.50000684708357,965.5000070855021A6,6,0,1,1,453.50000684708357,965.5000070855021A6,6,0,1,1,465.50000684708357,965.5000070855021"></path><path id="kity_path_268" fill="none" stroke="gray"></path></g><path id="node_outline28" fill="none" stroke="none" d="M329.5000049844384,954.5000070855021h119a5,5,0,0,1,5,5v12a5,5,0,0,1,-5,5h-119a5,5,0,0,1,-5,-5v-12a5,5,0,0,1,5,-5z" stroke-width="3"></path><g id="node_text28" fill="black"><text id="kity_text_264" text-rendering="inherit" font-size="12" dy=".8em" y="957.7000070586801" x="334.5000049844384">影响CO₂运输的因素</text></g></g></g></g></svg>