<svg xmlns="http://www.w3.org/2000/svg" viewBox="0 0 218.082 396.774" width="436.164" height="793.549"><defs><style>@font-face{font-family:&quot;Virgil&quot;;src:url(https://excalidraw.com/Virgil.woff2)}@font-face{font-family:&quot;Cascadia&quot;;src:url(https://excalidraw.com/Cascadia.woff2)}</style></defs><path fill="#fff" d="M0 0h218.082v396.774H0z"/><path d="M141.538 141.787c-10.51-19.43-53.03-126.03-61.85-117.63-8.81 8.39 15.18 107.72 8.95 168.02-6.23 60.29-60.98 186.87-46.33 193.76 14.65 6.88 117.59-150.49 134.21-152.46 16.62-1.97-39.46 137.51-34.48 140.64 4.97 3.13 58.91-61.54 64.32-121.87 5.42-60.33-21.06-221.47-31.83-240.11-10.78-18.63-27.26 106.72-32.8 128.3m-1.68.64c-10.7-19.76-52.31-127.47-60.91-118.74-8.61 8.73 15.48 110.36 9.29 171.1-6.19 60.74-60.91 186.56-46.42 193.34 14.49 6.78 116.54-150.9 133.36-152.67 16.81-1.77-37.78 139.24-32.46 142.05 5.32 2.82 58.74-64.38 64.36-125.19 5.63-60.8-19.42-221.55-30.61-239.65-11.19-18.11-30.73 109.33-36.52 131.02" stroke="#000" fill="none" stroke-linecap="round"/><path d="M71.391 33.138c1.97 26.17 18.4 102.18 11.43 157.55-6.96 55.38-44.45 145.41-53.21 174.7m43.68-333.48c1.92 25.77 16.11 101.09 8.72 156.79-7.4 55.7-44.58 147.59-53.08 177.39" stroke="#c92a2a" fill="none" stroke-linecap="round"/><path d="M53.865 27.862c2 26.37 18.91 101.55 11.76 156.94s-45.64 146.27-54.66 175.4m41.45-332.86c1.96 26.07 19.93 100.13 12.86 155.85s-46.36 148.9-55.28 178.46" stroke="#c92a2a" fill="none" stroke-linecap="round"/><text y="6.368" font-family="Virgil, Segoe UI Emoji" font-size="7.151" fill="#c92a2a" style="white-space:pre" transform="translate(52.984 166.123)">    旁腺</text><text y="6.368" font-family="Virgil, Segoe UI Emoji" font-size="7.151" fill="#c92a2a" style="white-space:pre" transform="translate(23.709 212.803)">        喉返神经</text></svg>
