<svg version="1.1" xmlns="http://www.w3.org/2000/svg" viewBox="0 0 741.3398099536076 243.41391494013374" width="741.3398099536076" height="243.41391494013374">
  <!-- svg-source:excalidraw -->
  
  <defs>
    <style>
      @font-face {
        font-family: "Virgil";
        src: url("https://excalidraw.com/Virgil.woff2");
      }
      @font-face {
        font-family: "Cascadia";
        src: url("https://excalidraw.com/Cascadia.woff2");
      }
    </style>
  </defs>
  <rect x="0" y="0" width="741.3398099536076" height="243.41391494013374" fill="#ffffff"></rect><g stroke-linecap="round"><g transform="translate(11.813415661267868 156.300048828125) rotate(0 174.4321939497255 -1.5397212096117414)"><path d="M-0.23 -1.17 C58.23 -1.64, 292.46 -3.39, 350.68 -3.91 M-1.81 0.83 C56.59 0.66, 291.99 -1.66, 350.3 -2.33" stroke="#000000" stroke-width="1" fill="none"></path></g></g><g stroke-linecap="round"><g transform="translate(76.61346448939287 233.1000518798828) rotate(0 -7.132059740368277 -93.311873826012)"><path d="M1.08 0.09 C-1.24 -30.84, -11.75 -155.81, -14.12 -186.71 M0.18 -0.91 C-2.31 -31.56, -13.03 -154.31, -15.34 -185.34" stroke="#000000" stroke-width="1" fill="none"></path></g><g transform="translate(76.61346448939287 233.1000518798828) rotate(0 -7.132059740368277 -93.311873826012)"><path d="M-2.67 -158.94 C-6.59 -164.88, -7.77 -173, -16.84 -187.2 M-3.11 -158.4 C-5.85 -164.63, -9.77 -172.03, -14.92 -186.09" stroke="#000000" stroke-width="1" fill="none"></path></g><g transform="translate(76.61346448939287 233.1000518798828) rotate(0 -7.132059740368277 -93.311873826012)"><path d="M-23.12 -157.27 C-21.28 -163.86, -16.73 -172.45, -16.84 -187.2 M-23.56 -156.73 C-20.88 -163.33, -19.36 -171.17, -14.92 -186.09" stroke="#000000" stroke-width="1" fill="none"></path></g></g><g stroke-linecap="round"><g transform="translate(107.81341566126787 93.10003662109375) rotate(0 87.95951167605818 -37.5875926416181)"><path d="M-0.52 -0.31 C28.71 -12.55, 146.99 -60.81, 176.44 -73.31 M1.41 -1.52 C30.42 -14.07, 146.71 -62.71, 175.72 -74.86" stroke="#000000" stroke-width="1" fill="none"></path></g></g><g stroke-linecap="round"><g transform="translate(110.21344007533037 121.9000244140625) rotate(0 89.70206550741568 -36.268660138361184)"><path d="M0.44 1.09 C30.56 -11.13, 150.45 -61.25, 180.19 -73.63 M-0.79 0.61 C29.23 -11.45, 148.99 -60.45, 179.33 -72.56" stroke="#000000" stroke-width="1" fill="none"></path></g></g><g transform="translate(165.21337904017412 10.800018310546875) rotate(0 19 13)"><text x="0" y="21" font-family="Chinese, Segoe UI Emoji" font-size="20px" fill="#000000" text-anchor="start" style="white-space: pre;" direction="ltr">AFP</text></g><g transform="translate(216.81341566126787 79.00003051757812) rotate(0 20.5 13)"><text x="0" y="21" font-family="Chinese, Segoe UI Emoji" font-size="20px" fill="#000000" text-anchor="start" style="white-space: pre;" direction="ltr">ALT</text></g><g stroke-linecap="round"><g transform="translate(382.21344007533037 155.50003051757812) rotate(0 174.58382156869402 -2.1006407620385232)"><path d="M0.98 -0.89 C59.01 -1.62, 291.02 -3.14, 349.13 -3.57 M0.04 1.26 C57.79 0.09, 289.79 -4.34, 347.93 -5.46" stroke="#000000" stroke-width="1" fill="none"></path></g></g><g stroke-linecap="round"><g transform="translate(447.01348890345537 232.30003356933594) rotate(0 -6.570994395855848 -93.22973253911357)"><path d="M-0.07 1.11 C-2.12 -29.68, -10.5 -154.68, -12.63 -185.78 M-1.57 0.65 C-3.65 -30.41, -11.12 -156.25, -13.07 -187.57" stroke="#000000" stroke-width="1" fill="none"></path></g><g transform="translate(447.01348890345537 232.30003356933594) rotate(0 -6.570994395855848 -93.22973253911357)"><path d="M0.73 -158.44 C-3.09 -166.3, -5.78 -175, -12.43 -185.58 M-2.06 -160.08 C-5.05 -167.53, -7.05 -175.46, -13.12 -187.31" stroke="#000000" stroke-width="1" fill="none"></path></g><g transform="translate(447.01348890345537 232.30003356933594) rotate(0 -6.570994395855848 -93.22973253911357)"><path d="M-19.75 -157.2 C-18.02 -165.38, -15.18 -174.42, -12.43 -185.58 M-22.54 -158.83 C-19.68 -166.57, -15.84 -174.86, -13.12 -187.31" stroke="#000000" stroke-width="1" fill="none"></path></g></g><g stroke-linecap="round"><g transform="translate(478.21344007533037 92.30001831054688) rotate(0 87.88526315916334 -37.73241062587127)"><path d="M0.18 0.66 C29.24 -11.63, 145.64 -61.47, 174.85 -74.14 M-1.18 -0.04 C28.18 -12.68, 147.7 -63.7, 176.95 -76.12" stroke="#000000" stroke-width="1" fill="none"></path></g></g><g stroke-linecap="round"><g transform="translate(484.61346448939287 114.70001220703125) rotate(0 95.94773773091845 -1.968273175507818)"><path d="M0.82 -0.16 C32.68 -0.92, 160.06 -3.07, 192.1 -3.78 M-0.21 -1.28 C31.42 -1.91, 159 -1.85, 191.17 -2.2" stroke="#000000" stroke-width="1" fill="none"></path></g></g><g transform="translate(535.6134034542366 10) rotate(0 19 13)"><text x="0" y="21" font-family="Chinese, Segoe UI Emoji" font-size="20px" fill="#000000" text-anchor="start" style="white-space: pre;" direction="ltr">AFP</text></g><g transform="translate(587.2134400753304 78.20001220703125) rotate(0 20.5 13)"><text x="0" y="21" font-family="Chinese, Segoe UI Emoji" font-size="20px" fill="#000000" text-anchor="start" style="white-space: pre;" direction="ltr">ALT</text></g><g transform="translate(150.81341566126787 197.00003051757812) rotate(0 80 13)"><text x="0" y="21" font-family="Chinese, Segoe UI Emoji" font-size="20px" fill="#000000" text-anchor="start" style="white-space: pre;" direction="ltr">活动性病毒性肝炎</text></g><g transform="translate(549.8134156612679 182.00003051757812) rotate(0 20 13)"><text x="0" y="21" font-family="Chinese, Segoe UI Emoji" font-size="20px" fill="#000000" text-anchor="start" style="white-space: pre;" direction="ltr">肝癌</text></g></svg>