<svg id="kity_svg_6" xmlns="http://www.w3.org/2000/svg" xmlns:xlink="http://www.w3.org/1999/xlink" version="1.1" width="903" height="566" style="background: rgb(251, 251, 251); visibility: visible;" viewBox="0 0 903 566"><defs id="kity_defs_7"><linearGradient id="kity_linearGradient_17" x1="0" y1="0" x2="0" y2="1"><stop id="kity_stop_18" offset="0" stop-color="rgb(255, 255, 255)" data-darkreader-inline-stopcolor="" style="--darkreader-inline-stopcolor:#181a1b;"></stop><stop id="kity_stop_19" offset="1" stop-color="rgb(204, 204, 204)" data-darkreader-inline-stopcolor="" style="--darkreader-inline-stopcolor:#35393b;"></stop></linearGradient><marker id="kity_marker_2" orient="auto" refX="6" refY="0" viewBox="-7 -7 14 14" markerWidth="7" markerHeight="7" markerUnits="userSpaceOnUse"><path id="kity_path_3" fill="rgb(115, 161, 191)" stroke="none" d="M6,0A6,6,0,1,1,-6,0A6,6,0,1,1,6,0" data-darkreader-inline-fill="" data-darkreader-inline-stroke="" style="--darkreader-inline-fill:#7aa6c2; --darkreader-inline-stroke:none;"></path></marker></defs><g id="kity_g_8"><g id="minder1" text-rendering="geometricPrecision"><g id="minder_connect_group1"><path id="kity_path_31" fill="none" stroke="rgb(115, 161, 191)" stroke-width="1" d="M109.49999939650297,384.5000054165721A137,198,0,0,1,246.49999939650297,186.5000054165721" data-darkreader-inline-stroke="" style="--darkreader-inline-stroke:#7aa6c2;"></path><path id="kity_path_39" fill="none" stroke="rgb(115, 161, 191)" stroke-width="1" d="M415.499999396503,186.5000054165721C430.499999396503,186.5000054165721,430.499999396503,122.5000054165721,445.499999396503,122.5000054165721L536.499999396503,122.5000054165721" data-darkreader-inline-stroke="" style="--darkreader-inline-stroke:#7aa6c2;"></path><path id="kity_path_47" fill="none" stroke="rgb(115, 161, 191)" stroke-width="1" d="M536.499999396503,122.5000054165721C551.499999396503,122.5000054165721,551.499999396503,44.500005416572094,566.499999396503,44.500005416572094L669.499999396503,44.500005416572094" data-darkreader-inline-stroke="" style="--darkreader-inline-stroke:#7aa6c2;"></path><path id="kity_path_55" fill="none" stroke="rgb(115, 161, 191)" stroke-width="1" d="M536.499999396503,122.5000054165721C551.499999396503,122.5000054165721,551.499999396503,96.5000054165721,566.499999396503,96.5000054165721L681.499999396503,96.5000054165721"></path><path id="kity_path_63" fill="none" stroke="rgb(115, 161, 191)" stroke-width="1" d="M536.499999396503,122.5000054165721C551.499999396503,122.5000054165721,551.499999396503,148.5000054165721,566.499999396503,148.5000054165721L621.499999396503,148.5000054165721"></path><path id="kity_path_71" fill="none" stroke="rgb(115, 161, 191)" stroke-width="1" d="M536.499999396503,122.5000054165721C551.499999396503,122.5000054165721,551.499999396503,200.5000054165721,566.499999396503,200.5000054165721L646.499999396503,200.5000054165721"></path><path id="kity_path_79" fill="none" stroke="rgb(115, 161, 191)" stroke-width="1" d="M415.499999396503,186.5000054165721C430.499999396503,186.5000054165721,430.499999396503,278.5000054165721,445.499999396503,278.5000054165721L667.499999396503,278.5000054165721"></path><path id="kity_path_87" fill="none" stroke="rgb(115, 161, 191)" stroke-width="1" d="M667.499999396503,278.5000054165721C682.499999396503,278.5000054165721,682.499999396503,252.5000054165721,697.499999396503,252.5000054165721L883.499999396503,252.5000054165721"></path><path id="kity_path_95" fill="none" stroke="rgb(115, 161, 191)" stroke-width="1" d="M109.49999939650297,384.5000054165721A190,1,0,0,0,299.499999396503,385.5000054165721"></path><path id="kity_path_124" fill="none" stroke="rgb(115, 161, 191)" stroke-width="1" d="M667.499999396503,278.5000054165721C682.499999396503,278.5000054165721,682.499999396503,304.5000054165721,697.499999396503,304.5000054165721L872.499999396503,304.5000054165721"></path><path id="kity_path_188" fill="none" stroke="rgb(115, 161, 191)" stroke-width="1" d="M109.49999939650297,384.5000054165721A170,148,0,0,0,279.499999396503,532.5000054165721"></path><path id="kity_path_195" fill="none" stroke="rgb(115, 161, 191)" stroke-width="1" d="M385.499999396503,385.5000054165721C396.999999396503,385.5000054165721,396.999999396503,351.5000054165721,408.499999396503,351.5000054165721L512.499999396503,351.5000054165721"></path><path id="kity_path_196" fill="none" stroke="rgb(115, 161, 191)" stroke-width="1" d="M542.499999396503,436.5000054165721C557.499999396503,436.5000054165721,557.499999396503,384.5000054165721,572.499999396503,384.5000054165721L675.499999396503,384.5000054165721"></path><path id="kity_path_197" fill="none" stroke="rgb(115, 161, 191)" stroke-width="1" d="M542.499999396503,436.5000054165721C557.499999396503,436.5000054165721,557.499999396503,436.5000054165721,572.499999396503,436.5000054165721L678.499999396503,436.5000054165721"></path><path id="kity_path_198" fill="none" stroke="rgb(115, 161, 191)" stroke-width="1" d="M542.499999396503,436.5000054165721C557.499999396503,436.5000054165721,557.499999396503,488.5000054165721,572.499999396503,488.5000054165721L676.499999396503,488.5000054165721"></path><path id="kity_path_199" fill="none" stroke="rgb(115, 161, 191)" stroke-width="1" d="M385.499999396503,385.5000054165721C400.499999396503,385.5000054165721,400.499999396503,436.5000054165721,415.499999396503,436.5000054165721L542.499999396503,436.5000054165721"></path><path id="kity_path_200" fill="none" stroke="rgb(115, 161, 191)" stroke-width="1" d="M385.499999396503,385.5000054165721C400.499999396503,385.5000054165721,400.499999396503,503.5000054165721,415.499999396503,503.5000054165721L507.499999396503,503.5000054165721"></path></g><g id="minder_node1"><path id="node_outline1" fill="rgb(115, 161, 191)" stroke="rgb(115, 161, 191)" d="M25.49999939650297,364.5000054165721h168a5,5,0,0,1,5,5v30a5,5,0,0,1,-5,5h-168a5,5,0,0,1,-5,-5v-30a5,5,0,0,1,5,-5z" stroke-width="3" data-darkreader-inline-stroke="" style="--darkreader-inline-stroke:#7aa6c2; --darkreader-inline-fill:#365e77;" data-darkreader-inline-fill=""></path><g id="node_text1" fill="white" data-darkreader-inline-fill="" style="--darkreader-inline-fill:#181a1b;"><text id="kity_text_22" text-rendering="inherit" font-size="16" dy=".8em" y="374.1000053808093" x="44.49999939650297">肺换气和组织换气</text></g></g><g id="kity_g_14" display="none"><path id="kity_path_15" fill="rgba(0, 92, 153, 0.5)" stroke="none" d="M342.499999396503,447.5000054165721h117v15h-117z" data-darkreader-inline-stroke="" style="--darkreader-inline-stroke:none;"></path><path id="kity_path_16" fill="none" stroke="rgb(0, 76, 128)" data-darkreader-inline-stroke="" style="--darkreader-inline-stroke:none;" d="M342.499999396503,462.5000054165721L459.499999396503,462.5000054165721" stroke-width="1"></path></g><g id="minder_node2" opacity="1"><g id="node_expander1" style="cursor: pointer;"><path id="kity_path_36" fill="white" stroke="gray" d="M247.50000233203173,186.50000246614218A6,6,0,1,1,235.50000233203173,186.50000246614218A6,6,0,1,1,247.50000233203173,186.50000246614218" data-darkreader-inline-fill="" data-darkreader-inline-stroke="" style="--darkreader-inline-fill:#e8e6e3; --darkreader-inline-stroke:#988f81;"></path><path id="kity_path_37" fill="none" stroke="gray" data-darkreader-inline-stroke="" style="--darkreader-inline-stroke:#988f81;" d="M237.00000233203173,186.50000246614218L246.00000233203173,186.50000246614218"></path></g><path id="node_outline2" fill="rgb(238, 243, 246)" stroke="rgb(115, 161, 191)" d="M251.50000273436308,173.50000246614218h161a3,3,0,0,1,3,3v20a3,3,0,0,1,-3,3h-161a3,3,0,0,1,-3,-3v-20a3,3,0,0,1,3,-3z" stroke-width="1" data-darkreader-inline-fill="" data-darkreader-inline-stroke="" style="--darkreader-inline-fill:#1f2223; --darkreader-inline-stroke:#9cb4c4;"></path><g id="node_text2" fill="black" data-darkreader-inline-fill="" style="--darkreader-inline-fill:#000000;"><text id="kity_text_33" text-rendering="inherit" font-size="14" dy=".8em" y="177.40000243484974" x="268.5000027343631">气体交换的基本原理</text></g></g><g id="minder_node3"><g id="node_expander2" style="cursor: pointer;"><path id="kity_path_44" fill="white" stroke="gray" d="M455.50000543147326,108.5000013038516A6,6,0,1,1,443.50000543147326,108.5000013038516A6,6,0,1,1,455.50000543147326,108.5000013038516" data-darkreader-inline-fill="" data-darkreader-inline-stroke="" style="--darkreader-inline-fill:#e8e6e3; --darkreader-inline-stroke:#988f81;"></path><path id="kity_path_45" fill="none" stroke="gray" data-darkreader-inline-stroke="" style="--darkreader-inline-stroke:#988f81;" d="M445.00000543147326,108.5000013038516L454.00000543147326,108.5000013038516"></path></g><path id="node_outline3" fill="none" stroke="none" d="M460.50000566989183,97.5000013038516h71a5,5,0,0,1,5,5v12a5,5,0,0,1,-5,5h-71a5,5,0,0,1,-5,-5v-12a5,5,0,0,1,5,-5z" stroke-width="3" data-darkreader-inline-fill="" data-darkreader-inline-stroke="" style="--darkreader-inline-fill:transparent; --darkreader-inline-stroke:none;"></path><g id="node_text3" fill="black" data-darkreader-inline-fill="" style="--darkreader-inline-fill:#000000;"><text id="kity_text_41" text-rendering="inherit" font-size="12" dy=".8em" y="100.70000127702951" x="465.50000566989183">气体的扩散</text></g></g><g id="minder_node4"><g id="node_expander3" style="cursor: pointer;" display="none"><path id="kity_path_52" fill="white" stroke="gray" d="M576.5000072345138,30.50000014156103A6,6,0,1,1,564.5000072345138,30.50000014156103A6,6,0,1,1,576.5000072345138,30.50000014156103" data-darkreader-inline-fill="" data-darkreader-inline-stroke="" style="--darkreader-inline-fill:#e8e6e3; --darkreader-inline-stroke:#988f81;"></path><path id="kity_path_53" fill="none" stroke="gray" data-darkreader-inline-stroke="" style="--darkreader-inline-stroke:#988f81;"></path></g><path id="node_outline4" fill="none" stroke="none" d="M581.5000074729323,19.50000014156103h83a5,5,0,0,1,5,5v12a5,5,0,0,1,-5,5h-83a5,5,0,0,1,-5,-5v-12a5,5,0,0,1,5,-5z" stroke-width="3" data-darkreader-inline-fill="" data-darkreader-inline-stroke="" style="--darkreader-inline-fill:transparent; --darkreader-inline-stroke:none;"></path><g id="node_text4" fill="black" data-darkreader-inline-fill="" style="--darkreader-inline-fill:#000000;"><text id="kity_text_49" text-rendering="inherit" font-size="12" dy=".8em" y="22.70000011473894" x="586.5000074729323">气体的分压差</text></g></g><g id="minder_node5"><g id="node_expander4" style="cursor: pointer;" display="none"><path id="kity_path_60" fill="white" stroke="gray" d="M576.5000072345138,82.50000091642141A6,6,0,1,1,564.5000072345138,82.50000091642141A6,6,0,1,1,576.5000072345138,82.50000091642141"></path><path id="kity_path_61" fill="none" stroke="gray"></path></g><path id="node_outline5" fill="none" stroke="none" d="M581.5000074729323,71.50000091642141h95a5,5,0,0,1,5,5v12a5,5,0,0,1,-5,5h-95a5,5,0,0,1,-5,-5v-12a5,5,0,0,1,5,-5z" stroke-width="3"></path><g id="node_text5" fill="black"><text id="kity_text_57" text-rendering="inherit" font-size="12" dy=".8em" y="74.70000088959932" x="586.5000074729323">气体的扩散系数</text></g></g><g id="minder_node6"><g id="node_expander5" style="cursor: pointer;" display="none"><path id="kity_path_68" fill="white" stroke="gray" d="M576.5000072345138,134.5000016912818A6,6,0,1,1,564.5000072345138,134.5000016912818A6,6,0,1,1,576.5000072345138,134.5000016912818"></path><path id="kity_path_69" fill="none" stroke="gray"></path></g><path id="node_outline6" fill="none" stroke="none" d="M581.5000074729323,123.5000016912818h35a5,5,0,0,1,5,5v12a5,5,0,0,1,-5,5h-35a5,5,0,0,1,-5,-5v-12a5,5,0,0,1,5,-5z" stroke-width="3"></path><g id="node_text6" fill="black"><text id="kity_text_65" text-rendering="inherit" font-size="12" dy=".8em" y="126.7000016644597" x="586.5000074729323">温度</text></g></g><g id="minder_node7"><g id="node_expander6" style="cursor: pointer;" display="none"><path id="kity_path_76" fill="white" stroke="gray" d="M576.5000072345138,186.50000246614218A6,6,0,1,1,564.5000072345138,186.50000246614218A6,6,0,1,1,576.5000072345138,186.50000246614218"></path><path id="kity_path_77" fill="none" stroke="gray"></path></g><path id="node_outline7" fill="none" stroke="none" d="M581.5000074729323,175.50000246614218h60a5,5,0,0,1,5,5v12a5,5,0,0,1,-5,5h-60a5,5,0,0,1,-5,-5v-12a5,5,0,0,1,5,-5z" stroke-width="3"></path><g id="node_text7" fill="black"><text id="kity_text_73" text-rendering="inherit" font-size="12" dy=".8em" y="178.7000024393201" x="586.5000074729323">扩散面积</text></g></g><g id="minder_node8"><g id="node_expander7" style="cursor: pointer;"><path id="kity_path_84" fill="white" stroke="gray" d="M455.50000543147326,264.50000362843275A6,6,0,1,1,443.50000543147326,264.50000362843275A6,6,0,1,1,455.50000543147326,264.50000362843275"></path><path id="kity_path_85" fill="none" stroke="gray" d="M445.00000543147326,264.50000362843275L454.00000543147326,264.50000362843275"></path></g><path id="node_outline8" fill="none" stroke="none" d="M460.50000566989183,253.50000362843275h202a5,5,0,0,1,5,5v12a5,5,0,0,1,-5,5h-202a5,5,0,0,1,-5,-5v-12a5,5,0,0,1,5,-5z" stroke-width="3"></path><g id="node_text8" fill="black"><text id="kity_text_81" text-rendering="inherit" font-size="12" dy=".8em" y="256.70000360161066" x="465.50000566989183">呼吸气体和人体不同部位气体的分压</text></g></g><g id="minder_node9"><g id="node_expander8" style="cursor: pointer;" display="none"><path id="kity_path_92" fill="white" stroke="gray" d="M707.5000091865659,238.50000324100256A6,6,0,1,1,695.5000091865659,238.50000324100256A6,6,0,1,1,707.5000091865659,238.50000324100256"></path><path id="kity_path_93" fill="none" stroke="gray"></path></g><path id="node_outline9" fill="none" stroke="none" d="M712.5000094249845,227.50000324100256h166a5,5,0,0,1,5,5v12a5,5,0,0,1,-5,5h-166a5,5,0,0,1,-5,-5v-12a5,5,0,0,1,5,-5z" stroke-width="3"></path><g id="node_text9" fill="black"><text id="kity_text_89" text-rendering="inherit" font-size="12" dy=".8em" y="230.70000321418047" x="717.5000094249845">呼吸气和肺泡气的成分和分压</text></g></g><g id="minder_node10" opacity="1"><g id="node_expander9" style="cursor: pointer;"><path id="kity_path_100" fill="white" stroke="gray" d="M300.50000312179327,385.50000543147326A6,6,0,1,1,288.50000312179327,385.50000543147326A6,6,0,1,1,300.50000312179327,385.50000543147326"></path><path id="kity_path_101" fill="none" stroke="gray" d="M290.00000312179327,385.50000543147326L299.00000312179327,385.50000543147326"></path></g><path id="node_outline10" fill="rgb(238, 243, 246)" stroke="rgb(115, 161, 191)" d="M304.5000035241246,372.50000543147326h78a3,3,0,0,1,3,3v20a3,3,0,0,1,-3,3h-78a3,3,0,0,1,-3,-3v-20a3,3,0,0,1,3,-3z" stroke-width="1"></path><g id="node_text10" fill="black"><text id="kity_text_97" text-rendering="inherit" font-size="14" dy=".8em" y="376.4000054001808" x="321.5000035241246">肺换气</text></g></g><g id="minder_node13"><g id="node_expander12" style="cursor: pointer;" display="none"><path id="kity_path_129" fill="white" stroke="gray" d="M707.5000091865659,290.50000401586294A6,6,0,1,1,695.5000091865659,290.50000401586294A6,6,0,1,1,707.5000091865659,290.50000401586294"></path><path id="kity_path_130" fill="none" stroke="gray"></path></g><path id="node_outline13" fill="none" stroke="none" d="M712.5000094249845,279.50000401586294h155a5,5,0,0,1,5,5v12a5,5,0,0,1,-5,5h-155a5,5,0,0,1,-5,-5v-12a5,5,0,0,1,5,-5z" stroke-width="3"></path><g id="node_text13" fill="black"><text id="kity_text_126" text-rendering="inherit" font-size="12" dy=".8em" y="282.70000398904085" x="717.5000094249845">血液气体和组织气体的分压</text></g></g><g id="minder_node18" opacity="1"><g id="node_expander17" style="cursor: pointer;" display="none"><path id="kity_path_193" fill="white" stroke="gray" d="M391.50000447779894,532.500007621944A6,6,0,1,1,379.50000447779894,532.500007621944A6,6,0,1,1,391.50000447779894,532.500007621944"></path><path id="kity_path_194" fill="none" stroke="gray"></path></g><path id="node_outline18" fill="rgb(238, 243, 246)" stroke="rgb(115, 161, 191)" d="M284.5000032261014,519.500007621944h91a3,3,0,0,1,3,3v20a3,3,0,0,1,-3,3h-91a3,3,0,0,1,-3,-3v-20a3,3,0,0,1,3,-3z" stroke-width="1"></path><g id="node_text18" fill="black"><text id="kity_text_190" text-rendering="inherit" font-size="14" dy=".8em" y="523.4000075906515" x="301.5000032261014">组成换气</text></g></g><g id="minder_node16" opacity="1"><g id="node_expander15" style="cursor: pointer;" display="none"><path id="kity_path_165" fill="white" stroke="gray" d="M418.5000048801303,337.5000047162175A6,6,0,1,1,406.5000048801303,337.5000047162175A6,6,0,1,1,418.5000048801303,337.5000047162175"></path><path id="kity_path_166" fill="none" stroke="gray"></path></g><path id="node_outline16" fill="none" stroke="none" d="M423.50000511854887,326.5000047162175h84a5,5,0,0,1,5,5v12a5,5,0,0,1,-5,5h-84a5,5,0,0,1,-5,-5v-12a5,5,0,0,1,5,-5z" stroke-width="3"></path><g id="node_text16" fill="black"><text id="kity_text_162" text-rendering="inherit" font-size="12" dy=".8em" y="329.7000046893954" x="428.50000511854887">肺换气的过程</text></g></g><g id="minder_node12" opacity="1"><g id="node_expander11" style="cursor: pointer;" display="none"><path id="kity_path_117" fill="white" stroke="gray" d="M582.5000073239207,370.50000520795584A6,6,0,1,1,570.5000073239207,370.50000520795584A6,6,0,1,1,582.5000073239207,370.50000520795584"></path><path id="kity_path_118" fill="none" stroke="gray"></path></g><path id="node_outline12" fill="none" stroke="none" d="M587.5000075623393,359.50000520795584h83a5,5,0,0,1,5,5v12a5,5,0,0,1,-5,5h-83a5,5,0,0,1,-5,-5v-12a5,5,0,0,1,5,-5z" stroke-width="3"></path><g id="node_text12" fill="black"><text id="kity_text_114" text-rendering="inherit" font-size="12" dy=".8em" y="362.70000518113375" x="592.5000075623393">呼吸膜的厚度</text></g></g><g id="minder_node14"><g id="node_expander13" style="cursor: pointer;" display="none"><path id="kity_path_137" fill="white" stroke="gray" d="M582.5000073239207,422.5000059828162A6,6,0,1,1,570.5000073239207,422.5000059828162A6,6,0,1,1,582.5000073239207,422.5000059828162"></path><path id="kity_path_138" fill="none" stroke="gray"></path></g><path id="node_outline14" fill="none" stroke="none" d="M587.5000075623393,411.5000059828162h86a5,5,0,0,1,5,5v12a5,5,0,0,1,-5,5h-86a5,5,0,0,1,-5,-5v-12a5,5,0,0,1,5,-5z" stroke-width="3"></path><g id="node_text14" fill="black"><text id="kity_text_134" text-rendering="inherit" font-size="12" dy=".8em" y="414.70000595599413" x="592.5000075623393">呼吸膜的面积&#xa0;</text></g></g><g id="minder_node15"><g id="node_expander14" style="cursor: pointer;" display="none"><path id="kity_path_147" fill="white" stroke="gray" d="M582.5000073239207,474.5000067576766A6,6,0,1,1,570.5000073239207,474.5000067576766A6,6,0,1,1,582.5000073239207,474.5000067576766"></path><path id="kity_path_148" fill="none" stroke="gray"></path></g><path id="node_outline15" fill="none" stroke="none" d="M587.5000075623393,463.5000067576766h84a5,5,0,0,1,5,5v12a5,5,0,0,1,-5,5h-84a5,5,0,0,1,-5,-5v-12a5,5,0,0,1,5,-5z" stroke-width="3"></path><g id="node_text15" fill="black"><text id="kity_text_144" text-rendering="inherit" font-size="12" dy=".8em" y="466.7000067308545" x="592.5000075623393">通气血流比值</text></g></g><g id="minder_node11" opacity="1"><g id="node_expander10" style="cursor: pointer;"><path id="kity_path_108" fill="white" stroke="gray" d="M425.5000049844384,422.5000059828162A6,6,0,1,1,413.5000049844384,422.5000059828162A6,6,0,1,1,425.5000049844384,422.5000059828162"></path><path id="kity_path_109" fill="none" stroke="gray" d="M415.0000049844384,422.5000059828162L424.0000049844384,422.5000059828162"></path></g><path id="node_outline11" fill="none" stroke="none" d="M430.500005222857,411.5000059828162h107a5,5,0,0,1,5,5v12a5,5,0,0,1,-5,5h-107a5,5,0,0,1,-5,-5v-12a5,5,0,0,1,5,-5z" stroke-width="3"></path><g id="node_text11" fill="black"><text id="kity_text_105" text-rendering="inherit" font-size="12" dy=".8em" y="414.70000595599413" x="435.500005222857">影响肺换气的因素</text></g></g><g id="minder_node17"><g id="node_expander16" style="cursor: pointer;" display="none"><path id="kity_path_179" fill="white" stroke="gray" d="M425.5000049844384,489.500006981194A6,6,0,1,1,413.5000049844384,489.500006981194A6,6,0,1,1,425.5000049844384,489.500006981194"></path><path id="kity_path_180" fill="none" stroke="gray"></path></g><path id="node_outline17" fill="none" stroke="none" d="M430.500005222857,478.500006981194h72a5,5,0,0,1,5,5v12a5,5,0,0,1,-5,5h-72a5,5,0,0,1,-5,-5v-12a5,5,0,0,1,5,-5z" stroke-width="3"></path><g id="node_text17" fill="black"><text id="kity_text_176" text-rendering="inherit" font-size="12" dy=".8em" y="481.70000695437193" x="435.500005222857">肺扩散容量</text></g></g><g id="kity_g_12" display="none"><path id="kity_path_13" fill="none" stroke="rgb(66, 94, 112)" d="M430.499999396503,478.5000054165721h72a5,5,0,0,1,5,5v12a5,5,0,0,1,-5,5h-72a5,5,0,0,1,-5,-5v-12a5,5,0,0,1,5,-5z" data-darkreader-inline-stroke="" style="--darkreader-inline-stroke:none;" stroke-width="5"></path></g></g></g></svg>